<svg xmlns="http://www.w3.org/2000/svg" width="699.09" height="314.073" viewBox="-187.308 -143.987 699.09 314.073"><title>Neo4j Graph Visualization</title><desc>Created using Neo4j (http://www.neo4j.com/)</desc><g class="layer relationships"><g class="relationship"><path fill="#A5ABB6" stroke="none" d="M 40 1 L 41.95435526173644 1 L 41.95435526173644 -1 L 40 -1 Z M 91.82154276173644 1 L 93.77589802347288 1 L 93.77589802347288 4 L 101.77589802347288 0 L 93.77589802347288 -4 L 93.77589802347288 -1 L 91.82154276173644 -1 Z" class="outline" transform="translate(327.4864794205912 -3.092983625038727) rotate(433.87182091782506)"/><text x="66.888" y="3" fill="#000" font-family="sans-serif" font-size="8" pointer-events="none" text-anchor="middle" transform="translate(327.4864794205912 -3.092983625038727) rotate(433.87182091782506)">SUPPORTS</text></g><g class="relationship"><path fill="#A5ABB6" stroke="none" d="M 40 1 L 56.77357389870626 1 L 56.77357389870626 -1 L 40 -1 Z M 106.64076139870626 1 L 123.41433529741252 1 L 123.41433529741252 4 L 131.41433529741252 0 L 123.41433529741252 -4 L 123.41433529741252 -1 L 106.64076139870626 -1 Z" class="outline" transform="translate(327.4864794205912 -3.092983625038727) rotate(366.8558498427895)"/><text x="81.707" y="3" fill="#000" font-family="sans-serif" font-size="8" pointer-events="none" text-anchor="middle" transform="translate(327.4864794205912 -3.092983625038727) rotate(366.8558498427895)">SUPPORTS</text></g><g class="relationship"><path fill="#A5ABB6" stroke="none" d="M 40 1 L 44.08064093796196 1 L 44.08064093796196 -1 L 40 -1 Z M 93.94782843796196 1 L 98.02846937592392 1 L 98.02846937592392 4 L 106.02846937592392 0 L 98.02846937592392 -4 L 98.02846937592392 -1 L 93.94782843796196 -1 Z" class="outline" transform="translate(327.4864794205912 -3.092983625038727) rotate(394.20392175611073)"/><text x="69.014" y="3" fill="#000" font-family="sans-serif" font-size="8" pointer-events="none" text-anchor="middle" transform="translate(327.4864794205912 -3.092983625038727) rotate(394.20392175611073)">SUPPORTS</text></g><g class="relationship"><path fill="#A5ABB6" stroke="none" d="M 40 1 L 40.72261467978497 1 L 40.72261467978497 -1 L 40 -1 Z M 90.58980217978497 1 L 91.31241685956994 1 L 91.31241685956994 4 L 99.31241685956994 0 L 91.31241685956994 -4 L 91.31241685956994 -1 L 90.58980217978497 -1 Z" class="outline" transform="translate(327.4864794205912 -3.092983625038727) rotate(244.17177129191316)"/><text x="65.656" y="3" fill="#000" font-family="sans-serif" font-size="8" pointer-events="none" text-anchor="middle" transform="translate(327.4864794205912 -3.092983625038727) rotate(244.17177129191316) rotate(180 65.65620842978497 0)">SUPPORTS</text></g><g class="relationship"><path fill="#A5ABB6" stroke="none" d="M 40 1 L 42.35841904121299 1 L 42.35841904121299 -1 L 40 -1 Z M 92.22560654121298 1 L 94.58402558242598 1 L 94.58402558242598 4 L 102.58402558242598 0 L 94.58402558242598 -4 L 94.58402558242598 -1 L 92.22560654121298 -1 Z" class="outline" transform="translate(327.4864794205912 -3.092983625038727) rotate(311.03557687897364)"/><text x="67.292" y="3" fill="#000" font-family="sans-serif" font-size="8" pointer-events="none" text-anchor="middle" transform="translate(327.4864794205912 -3.092983625038727) rotate(311.03557687897364)">SUPPORTS</text></g><g class="relationship"><path fill="#A5ABB6" stroke="none" d="M 40 1 L 41.20829468620296 1 L 41.20829468620296 -1 L 40 -1 Z M 91.07548218620296 1 L 92.28377687240592 1 L 92.28377687240592 4 L 100.28377687240592 0 L 92.28377687240592 -4 L 92.28377687240592 -1 L 91.07548218620296 -1 Z" class="outline" transform="translate(327.4864794205912 -3.092983625038727) rotate(340.55755181853294)"/><text x="66.142" y="3" fill="#000" font-family="sans-serif" font-size="8" pointer-events="none" text-anchor="middle" transform="translate(327.4864794205912 -3.092983625038727) rotate(340.55755181853294)">SUPPORTS</text></g><g class="relationship"><path fill="#A5ABB6" stroke="none" d="M 40 1 L 42.64353519651114 1 L 42.64353519651114 -1 L 40 -1 Z M 92.51072269651114 1 L 95.15425789302228 1 L 95.15425789302228 4 L 103.15425789302228 0 L 95.15425789302228 -4 L 95.15425789302228 -1 L 92.51072269651114 -1 Z" class="outline" transform="translate(327.4864794205912 -3.092983625038727) rotate(214.8624225315384)"/><text x="67.577" y="3" fill="#000" font-family="sans-serif" font-size="8" pointer-events="none" text-anchor="middle" transform="translate(327.4864794205912 -3.092983625038727) rotate(214.8624225315384) rotate(180 67.57712894651114 0)">SUPPORTS</text></g><g class="relationship"><path fill="#A5ABB6" stroke="none" d="M 40 1 L 45.02921263521914 1 L 45.02921263521914 -1 L 40 -1 Z M 94.89640013521914 1 L 99.92561277043828 1 L 99.92561277043828 4 L 107.92561277043828 0 L 99.92561277043828 -4 L 99.92561277043828 -1 L 94.89640013521914 -1 Z" class="outline" transform="translate(327.4864794205912 -3.092983625038727) rotate(185.9233876419106)"/><text x="69.963" y="3" fill="#000" font-family="sans-serif" font-size="8" pointer-events="none" text-anchor="middle" transform="translate(327.4864794205912 -3.092983625038727) rotate(185.9233876419106) rotate(180 69.96280638521914 0)">SUPPORTS</text></g><g class="relationship"><path fill="#A5ABB6" stroke="none" d="M 40 1 L 40.93130602522049 1 L 40.93130602522049 -1 L 40 -1 Z M 105.6148997752205 1 L 106.54620580044099 1 L 106.54620580044099 4 L 114.54620580044099 0 L 106.54620580044099 -4 L 106.54620580044099 -1 L 105.6148997752205 -1 Z" class="outline" transform="translate(146.27280421081792 56.53393399589364) rotate(522.2973275519649)"/><text x="73.273" y="3" fill="#000" font-family="sans-serif" font-size="8" pointer-events="none" text-anchor="middle" transform="translate(146.27280421081792 56.53393399589364) rotate(522.2973275519649) rotate(180 73.2731029002205 0)">EXTENDED_BY</text></g><g class="relationship"><path fill="#A5ABB6" stroke="none" d="M 40 1 L 48.98557220750338 1 L 48.98557220750338 -1 L 40 -1 Z M 95.43869720750338 1 L 104.42426941500676 1 L 104.42426941500676 4 L 112.42426941500676 0 L 104.42426941500676 -4 L 104.42426941500676 -1 L 95.43869720750338 -1 Z" class="outline" transform="translate(146.27280421081792 56.53393399589364) rotate(206.81075570589854)"/><text x="72.212" y="3" fill="#000" font-family="sans-serif" font-size="8" pointer-events="none" text-anchor="middle" transform="translate(146.27280421081792 56.53393399589364) rotate(206.81075570589854) rotate(180 72.21213470750338 0)">INCLUDES</text></g><g class="relationship"><path fill="#A5ABB6" stroke="none" d="M 40 1 L 46.097062145538146 1 L 46.097062145538146 -1 L 40 -1 Z M 93.44081214553815 1 L 99.53787429107629 1 L 99.53787429107629 4 L 107.53787429107629 0 L 99.53787429107629 -4 L 99.53787429107629 -1 L 93.44081214553815 -1 Z" class="outline" transform="translate(146.27280421081792 56.53393399589364) rotate(387.7889035915265)"/><text x="69.769" y="3" fill="#000" font-family="sans-serif" font-size="8" pointer-events="none" text-anchor="middle" transform="translate(146.27280421081792 56.53393399589364) rotate(387.7889035915265)">PROVIDES</text></g><g class="relationship"><path fill="#A5ABB6" stroke="none" d="M 40 1 L 53.49707835532351 1 L 53.49707835532351 -1 L 40 -1 Z M 129.2744221053235 1 L 142.77150046064702 1 L 142.77150046064702 4 L 150.77150046064702 0 L 142.77150046064702 -4 L 142.77150046064702 -1 L 129.2744221053235 -1 Z" class="outline" transform="translate(146.27280421081792 56.53393399589364) rotate(341.7866209448681)"/><text x="91.386" y="3" fill="#000" font-family="sans-serif" font-size="8" pointer-events="none" text-anchor="middle" transform="translate(146.27280421081792 56.53393399589364) rotate(341.7866209448681)">CONNECTS_WITH</text></g><g class="relationship"><path fill="#A5ABB6" stroke="none" d="M 40 1 L 41.18238814866634 1 L 41.18238814866634 -1 L 40 -1 Z M 92.38551314866635 1 L 93.56790129733268 1 L 93.56790129733268 4 L 101.56790129733268 0 L 93.56790129733268 -4 L 93.56790129733268 -1 L 92.38551314866635 -1 Z" class="outline" transform="translate(-0.9552213462672796 103.52795721028258) rotate(522.7379327084433)"/><text x="66.784" y="3" fill="#000" font-family="sans-serif" font-size="8" pointer-events="none" text-anchor="middle" transform="translate(-0.9552213462672796 103.52795721028258) rotate(522.7379327084433) rotate(180 66.78395064866635 0)">PLUG_INTO</text></g><g class="relationship"><path fill="#A5ABB6" stroke="none" d="M 40 1 L 57.26072271984164 1 L 57.26072271984164 -1 L 40 -1 Z M 108.46384771984164 1 L 125.72457043968328 1 L 125.72457043968328 4 L 133.72457043968328 0 L 125.72457043968328 -4 L 125.72457043968328 -1 L 108.46384771984164 -1 Z" class="outline" transform="translate(-0.9552213462672796 103.52795721028258) rotate(187.53941100857026)"/><text x="82.862" y="3" fill="#000" font-family="sans-serif" font-size="8" pointer-events="none" text-anchor="middle" transform="translate(-0.9552213462672796 103.52795721028258) rotate(187.53941100857026) rotate(180 82.86228521984164 0)">PLUG_INTO</text></g><g class="relationship"><path fill="#A5ABB6" stroke="none" d="M 40 1 L 47.05297136924982 1 L 47.05297136924982 -1 L 40 -1 Z M 69.50219011924982 1 L 76.55516148849964 1 L 76.55516148849964 4 L 84.55516148849964 0 L 76.55516148849964 -4 L 76.55516148849964 -1 L 69.50219011924982 -1 Z" class="outline" transform="translate(10.23396650760121 -12.216284498715027) rotate(520.7733559396468)"/><text x="58.278" y="3" fill="#000" font-family="sans-serif" font-size="8" pointer-events="none" text-anchor="middle" transform="translate(10.23396650760121 -12.216284498715027) rotate(520.7733559396468) rotate(180 58.27758074424982 0)">HAS</text></g><g class="relationship"><path fill="#A5ABB6" stroke="none" d="M 40 1 L 44.810831634987004 1 L 44.810831634987004 -1 L 40 -1 Z M 67.26005038498701 1 L 72.07088201997401 1 L 72.07088201997401 4 L 80.07088201997401 0 L 72.07088201997401 -4 L 72.07088201997401 -1 L 67.26005038498701 -1 Z" class="outline" transform="translate(10.23396650760121 -12.216284498715027) rotate(344.9032825216607)"/><text x="56.035" y="3" fill="#000" font-family="sans-serif" font-size="8" pointer-events="none" text-anchor="middle" transform="translate(10.23396650760121 -12.216284498715027) rotate(344.9032825216607)">HAS</text></g><g class="relationship"><path fill="#A5ABB6" stroke="none" d="M 40 1 L 48.436544835360586 1 L 48.436544835360586 -1 L 40 -1 Z M 70.88576358536059 1 L 79.32230842072117 1 L 79.32230842072117 4 L 87.32230842072117 0 L 79.32230842072117 -4 L 79.32230842072117 -1 L 70.88576358536059 -1 Z" class="outline" transform="translate(10.23396650760121 -12.216284498715027) rotate(199.8193459112951)"/><text x="59.661" y="3" fill="#000" font-family="sans-serif" font-size="8" pointer-events="none" text-anchor="middle" transform="translate(10.23396650760121 -12.216284498715027) rotate(199.8193459112951) rotate(180 59.661154210360586 0)">HAS</text></g></g><g class="layer nodes"><a class="interactive-svg" href="https://neo4j.com/developer/java/" target="_parent"><g class="node" transform="translate(195.2705863751395,-16.8107150916544)"><circle cx="0" cy="0" r="25" fill="#D9C8AE" stroke="#c0a378" stroke-width="2" class="outline"/><text y="5" fill="#604A0E" font-family="sans-serif" font-size="10" pointer-events="none" text-anchor="middle">Java</text></g></a><a class="interactive-svg" href="https://neo4j.com/developer/javascript/" target="_parent"><g class="node" transform="translate(222.3324581332078,-76.346963880065)"><circle cx="0" cy="0" r="25" fill="#D9C8AE" stroke="#c0a378" stroke-width="2" class="outline"/><text y="5" fill="#604A0E" font-family="sans-serif" font-size="10" pointer-events="none" text-anchor="middle">Javascript</text></g></a><a class="interactive-svg" href="https://neo4j.com/developer/python/" target="_parent"><g class="node" transform="translate(445.6261135451432,-44.79492118592168)"><circle cx="0" cy="0" r="25" fill="#D9C8AE" stroke="#c0a378" stroke-width="2" class="outline"/><text y="5" fill="#604A0E" font-family="sans-serif" font-size="10" pointer-events="none" text-anchor="middle">Python</text></g></a><a class="interactive-svg" href="https://neo4j.com/developer/dotnet/" target="_parent"><g class="node" transform="translate(411.2489042310692,-99.329877660986)"><circle cx="0" cy="0" r="25" fill="#D9C8AE" stroke="#c0a378" stroke-width="2" class="outline"/><text y="5" fill="#604A0E" font-family="sans-serif" font-size="10" pointer-events="none" text-anchor="middle">.Net</text></g></a><a class="interactive-svg" href="https://neo4j.com/developer/php/" target="_parent"><g class="node" transform="translate(273.3267145566171,-114.98711597945008)"><circle cx="0" cy="0" r="25" fill="#D9C8AE" stroke="#c0a378" stroke-width="2" class="outline"/><text y="5" fill="#604A0E" font-family="sans-serif" font-size="10" pointer-events="none" text-anchor="middle">PHP</text></g></a><a class="interactive-svg" href="https://neo4j.com/open-source-project/" target="_parent"><g class="node" transform="translate(276.7953247798569,125.3183506513704)"><circle cx="0" cy="0" r="40" fill="#F16667" stroke="#eb2728" stroke-width="2" class="outline"/><text y="0" fill="#FFF" font-family="sans-serif" font-size="13" font-weight="600" pointer-events="none" text-anchor="middle">Open</text><text y="12" fill="#FFF" font-family="sans-serif" font-size="13" font-weight="600" pointer-events="none" text-anchor="middle">Source</text></g></a><a class="interactive-svg" href="https://neo4j.com/developer/language-guides/" target="_parent"><g class="node" transform="translate(327.4864794205912,-3.092983625038727)"><circle cx="0" cy="0" r="40" fill="#57C7E3" stroke="#23b3d7" stroke-width="2" class="outline"/><text y="5" fill="#FFF" font-family="sans-serif" font-size="13" font-weight="600" pointer-events="none" text-anchor="middle">Drivers</text></g></a><a class="interactive-svg" href="https://neo4j.com/" target="_parent"><g class="node" transform="translate(146.27280421081792,56.53393399589364)"><circle cx="0" cy="0" r="40" fill="#8DCC93" stroke="#5db665" stroke-width="2" class="outline"/><text y="5" fill="#FFF" font-family="sans-serif" font-size="18" font-weight="600" pointer-events="none" text-anchor="middle">Neo4j</text></g></a><a class="interactive-svg" href="https://neo4j.com/developer/integration/" target="_parent"><g class="node" transform="translate(-0.9552213462672796,103.52795721028258)"><circle cx="0" cy="0" r="40" fill="#ECB5C9" stroke="#da7298" stroke-width="2" class="outline"/><text y="5" fill="#FFF" font-family="sans-serif" font-size="13" font-weight="600" pointer-events="none" text-anchor="middle">Integrations</text></g></a><a class="interactive-svg" href="https://neo4j.com/developer/neo4j-browser/" target="_parent"><g class="node" transform="translate(10.23396650760121,-12.216284498715027)"><circle cx="0" cy="0" r="40" fill="#C990C0" stroke="#b261a5" stroke-width="2" class="outline"/><text y="0" fill="#FFF" font-family="sans-serif" font-size="13" font-weight="600" pointer-events="none" text-anchor="middle">Neo4j</text><text y="12" fill="#FFF" font-family="sans-serif" font-size="13" font-weight="600" pointer-events="none" text-anchor="middle">Browser</text></g></a><a class="interactive-svg" href="https://neo4j.com/developer/ruby/" target="_parent"><g class="node" transform="translate(435.85253977554936,70.56335860116062)"><circle cx="0" cy="0" r="25" fill="#D9C8AE" stroke="#c0a378" stroke-width="2" class="outline"/><text y="5" fill="#604A0E" font-family="sans-serif" font-size="10" pointer-events="none" text-anchor="middle">Ruby</text></g></a><a class="interactive-svg" href="https://neo4j.com/developer/go/" target="_parent"><g class="node" transform="translate(482.7823928615736,15.57848003109396)"><circle cx="0" cy="0" r="25" fill="#D9C8AE" stroke="#c0a378" stroke-width="2" class="outline"/><text y="5" fill="#604A0E" font-family="sans-serif" font-size="10" pointer-events="none" text-anchor="middle">Go</text></g></a><a class="interactive-svg" href="https://neo4j.com/developer/language-guides/" target="_parent"><g class="node" transform="translate(362.7031945676293,118.69335096924313)"><circle cx="0" cy="0" r="25" fill="#D9C8AE" stroke="#c0a378" stroke-width="2" class="outline"/><text y="5" fill="#604A0E" font-family="sans-serif" font-size="10" pointer-events="none" text-anchor="middle">And More</text></g></a><a class="interactive-svg" href="https://neo4j.com/developer/cypher/" target="_parent"><g class="node" transform="translate(-95.43508054357102,-50.29979095829356)"><circle cx="0" cy="0" r="25" fill="#D9C8AE" stroke="#c0a378" stroke-width="2" class="outline"/><text y="5" fill="#604A0E" font-family="sans-serif" font-size="10" pointer-events="none" text-anchor="middle">Cypher</text></g></a><a class="interactive-svg" href="https://neo4j.com/developer/graph-visualization/" target="_parent"><g class="node" transform="translate(111.67859536564782,-39.581911191858296)"><circle cx="0" cy="0" r="25" fill="#D9C8AE" stroke="#c0a378" stroke-width="2" class="outline"/><text y="5" fill="#604A0E" font-family="sans-serif" font-size="9" pointer-events="none" text-anchor="middle">Visualization</text></g></a><a class="interactive-svg" href="https://neo4j.com/developer/neo4j-browser/" target="_parent"><g class="node" transform="translate(-93.21057359298362,23.860862452640916)"><circle cx="0" cy="0" r="25" fill="#D9C8AE" stroke="#c0a378" stroke-width="2" class="outline"/><text y="5" fill="#604A0E" font-family="sans-serif" font-size="10" pointer-events="none" text-anchor="middle">Dev Tools</text></g></a><a class="interactive-svg" href="https://neo4j.com/developer/graph-platform/" target="_parent"><g class="node" transform="translate(-158.30759313734814,82.70200337898255)"><circle cx="0" cy="0" r="25" fill="#D9C8AE" stroke="#c0a378" stroke-width="2" class="outline"/><text y="5" fill="#604A0E" font-family="sans-serif" font-size="10" pointer-events="none" text-anchor="middle">Tools</text></g></a><a class="interactive-svg" href="https://neo4j.com/developer/resources/#neo4j-integrations" target="_parent"><g class="node" transform="translate(-121.82218383316447,141.08605910591004)"><circle cx="0" cy="0" r="25" fill="#D9C8AE" stroke="#c0a378" stroke-width="2" class="outline"/><text y="5" fill="#604A0E" font-family="sans-serif" font-size="9" pointer-events="none" text-anchor="middle">Frameworks</text></g></a></g></svg>