<svg xmlns="http://www.w3.org/2000/svg" width="789.927" height="606.164" viewBox="-751.801 -391.007 789.927 606.164"><title>Neo4j Graph Visualization</title><desc>Created using Neo4j (http://www.neo4j.com/)</desc><g class="layer relationships"><g class="relationship"><path fill="#A5ABB6" stroke="none" d="M 40 0.5 L 134.5927564930889 0.5 L 134.5927564930889 -0.5 L 40 -0.5 Z M 164.5927564930889 0.5 L 259.1855129861778 0.5 L 259.1855129861778 3.5 L 266.1855129861778 0 L 259.1855129861778 -3.5 L 259.1855129861778 -0.5 L 164.5927564930889 -0.5 Z" class="outline" transform="translate(-290.38201170869786 -160.78440195697402) rotate(383.43468342523676)"/><text x="149.593" y="3" fill="#000" font-family="sans-serif" font-size="8" pointer-events="none" text-anchor="middle" transform="translate(-290.38201170869786 -160.78440195697402) rotate(383.43468342523676)">CITED</text></g><g class="relationship"><path fill="#A5ABB6" stroke="none" d="M 40 0.5 L 119.01365336397117 0.5 L 119.01365336397117 -0.5 L 40 -0.5 Z M 149.01365336397117 0.5 L 228.02730672794235 0.5 L 228.02730672794235 3.5 L 235.02730672794235 0 L 228.02730672794235 -3.5 L 228.02730672794235 -0.5 L 149.01365336397117 -0.5 Z" class="outline" transform="translate(-89.07462741557094 -103.12019390926241) rotate(454.2342727094075)"/><text x="134.014" y="3" fill="#000" font-family="sans-serif" font-size="8" pointer-events="none" text-anchor="middle" transform="translate(-89.07462741557094 -103.12019390926241) rotate(454.2342727094075) rotate(180 134.01365336397117 0)">CITED</text></g><g class="relationship"><path fill="#A5ABB6" stroke="none" d="M 40 0.5 L 55.327141635357464 0.5 L 55.327141635357464 -0.5 L 40 -0.5 Z M 85.32714163535746 0.5 L 100.65428327071493 0.5 L 100.65428327071493 3.5 L 107.65428327071493 0 L 100.65428327071493 -3.5 L 100.65428327071493 -0.5 L 85.32714163535746 -0.5 Z" class="outline" transform="translate(-172.40423781359942 -185.58636055392594) rotate(353.89359908625124)"/><text x="70.327" y="3" fill="#000" font-family="sans-serif" font-size="8" pointer-events="none" text-anchor="middle" transform="translate(-172.40423781359942 -185.58636055392594) rotate(353.89359908625124)">CITED</text></g><g class="relationship"><path fill="#A5ABB6" stroke="none" d="M 40 0.5 L 93.26278574796449 0.5 L 93.26278574796449 -0.5 L 40 -0.5 Z M 123.26278574796449 0.5 L 176.52557149592897 0.5 L 176.52557149592897 3.5 L 183.52557149592897 0 L 176.52557149592897 -3.5 L 176.52557149592897 -0.5 L 123.26278574796449 -0.5 Z" class="outline" transform="translate(-692.6205258735338 126.59108088747405) rotate(370.51478422742287)"/><text x="108.263" y="3" fill="#000" font-family="sans-serif" font-size="8" pointer-events="none" text-anchor="middle" transform="translate(-692.6205258735338 126.59108088747405) rotate(370.51478422742287)">CITED</text></g><g class="relationship"><path fill="#A5ABB6" stroke="none" d="M 40 0.5 L 51.783842251529194 0.5 L 51.783842251529194 -0.5 L 40 -0.5 Z M 81.7838422515292 0.5 L 93.56768450305839 0.5 L 93.56768450305839 3.5 L 100.56768450305839 0 L 93.56768450305839 -3.5 L 93.56768450305839 -0.5 L 81.7838422515292 -0.5 Z" class="outline" transform="translate(-332.50538392625884 159.43830927527665) rotate(536.7603666214613)"/><text x="66.784" y="3" fill="#000" font-family="sans-serif" font-size="8" pointer-events="none" text-anchor="middle" transform="translate(-332.50538392625884 159.43830927527665) rotate(536.7603666214613) rotate(180 66.7838422515292 0)">CITED</text></g><g class="relationship"><path fill="#A5ABB6" stroke="none" d="M 40 0.5 L 101.80972068066285 0.5 L 101.80972068066285 -0.5 L 40 -0.5 Z M 131.80972068066285 0.5 L 193.6194413613257 0.5 L 193.6194413613257 3.5 L 200.6194413613257 0 L 193.6194413613257 -3.5 L 193.6194413613257 -0.5 L 131.80972068066285 -0.5 Z" class="outline" transform="translate(-550.7824430500356 -60.266772591201885) rotate(431.10171499630997)"/><text x="116.81" y="3" fill="#000" font-family="sans-serif" font-size="8" pointer-events="none" text-anchor="middle" transform="translate(-550.7824430500356 -60.266772591201885) rotate(431.10171499630997)">CITED</text></g><g class="relationship"><path fill="#A5ABB6" stroke="none" d="M 40 0.5 L 113.65387791411004 0.5 L 113.65387791411004 -0.5 L 40 -0.5 Z M 147.21637791411004 0.5 L 220.87025582822008 0.5 L 220.87025582822008 3.5 L 227.87025582822008 0 L 220.87025582822008 -3.5 L 220.87025582822008 -0.5 L 147.21637791411004 -0.5 Z" class="outline" transform="translate(-550.7824430500356 -60.266772591201885) rotate(382.14735646427255)"/><text x="130.435" y="3" fill="#000" font-family="sans-serif" font-size="8" pointer-events="none" text-anchor="middle" transform="translate(-550.7824430500356 -60.266772591201885) rotate(382.14735646427255)">VENUE</text></g><g class="relationship"><path fill="#A5ABB6" stroke="none" d="M 40 0.5 L 55.18497476112313 0.5 L 55.18497476112313 -0.5 L 40 -0.5 Z M 85.18497476112313 0.5 L 100.36994952224626 0.5 L 100.36994952224626 3.5 L 107.36994952224626 0 L 100.36994952224626 -3.5 L 100.36994952224626 -0.5 L 85.18497476112313 -0.5 Z" class="outline" transform="translate(-550.7824430500356 -60.266772591201885) rotate(354.20136186483273)"/><text x="70.185" y="3" fill="#000" font-family="sans-serif" font-size="8" pointer-events="none" text-anchor="middle" transform="translate(-550.7824430500356 -60.266772591201885) rotate(354.20136186483273)">CITED</text></g><g class="relationship"><path fill="#A5ABB6" stroke="none" d="M 40 0.5 L 45.79252403147247 0.5 L 45.79252403147247 -0.5 L 40 -0.5 Z M 75.79252403147247 0.5 L 81.58504806294494 0.5 L 81.58504806294494 3.5 L 88.58504806294494 0 L 81.58504806294494 -3.5 L 81.58504806294494 -0.5 L 75.79252403147247 -0.5 Z" class="outline" transform="translate(-550.7824430500356 -60.266772591201885) rotate(467.27122569407527)"/><text x="60.793" y="3" fill="#000" font-family="sans-serif" font-size="8" pointer-events="none" text-anchor="middle" transform="translate(-550.7824430500356 -60.266772591201885) rotate(467.27122569407527) rotate(180 60.79252403147247 0)">CITED</text></g><g class="relationship"><path fill="#A5ABB6" stroke="none" d="M 40 0.5 L 55.93485251060115 0.5 L 55.93485251060115 -0.5 L 40 -0.5 Z M 95.71219626060115 0.5 L 111.6470487712023 0.5 L 111.6470487712023 3.5 L 118.6470487712023 0 L 111.6470487712023 -3.5 L 111.6470487712023 -0.5 L 95.71219626060115 -0.5 Z" class="outline" transform="translate(-550.7824430500356 -60.266772591201885) rotate(188.21578616034236)"/><text x="75.824" y="3" fill="#000" font-family="sans-serif" font-size="8" pointer-events="none" text-anchor="middle" transform="translate(-550.7824430500356 -60.266772591201885) rotate(188.21578616034236) rotate(180 75.82352438560115 0)">AUTHOR</text></g><g class="relationship"><path fill="#A5ABB6" stroke="none" d="M 40 0.5 L 175.7864849337796 0.5 L 175.7864849337796 -0.5 L 40 -0.5 Z M 215.5638286837796 0.5 L 351.3503136175592 0.5 L 351.3503136175592 3.5 L 358.3503136175592 0 L 351.3503136175592 -3.5 L 351.3503136175592 -0.5 L 215.5638286837796 -0.5 Z" class="outline" transform="translate(-550.7824430500356 -60.266772591201885) rotate(329.0826623223944)"/><text x="195.675" y="3" fill="#000" font-family="sans-serif" font-size="8" pointer-events="none" text-anchor="middle" transform="translate(-550.7824430500356 -60.266772591201885) rotate(329.0826623223944)">AUTHOR</text></g><g class="relationship"><path fill="#A5ABB6" stroke="none" d="M 40 0.5 L 88.25515269833332 0.5 L 88.25515269833332 -0.5 L 40 -0.5 Z M 128.03249644833332 0.5 L 176.28764914666664 0.5 L 176.28764914666664 3.5 L 183.28764914666664 0 L 176.28764914666664 -3.5 L 176.28764914666664 -0.5 L 128.03249644833332 -0.5 Z" class="outline" transform="translate(-550.7824430500356 -60.266772591201885) rotate(273.055369904421)"/><text x="108.144" y="3" fill="#000" font-family="sans-serif" font-size="8" pointer-events="none" text-anchor="middle" transform="translate(-550.7824430500356 -60.266772591201885) rotate(273.055369904421)">AUTHOR</text></g><g class="relationship"><path fill="#A5ABB6" stroke="none" d="M 40 0.5 L 139.13346447134285 0.5 L 139.13346447134285 -0.5 L 40 -0.5 Z M 178.91080822134285 0.5 L 278.0442726926857 0.5 L 278.0442726926857 3.5 L 285.0442726926857 0 L 278.0442726926857 -3.5 L 278.0442726926857 -0.5 L 178.91080822134285 -0.5 Z" class="outline" transform="translate(-550.7824430500356 -60.266772591201885) rotate(298.0961945726613)"/><text x="159.022" y="3" fill="#000" font-family="sans-serif" font-size="8" pointer-events="none" text-anchor="middle" transform="translate(-550.7824430500356 -60.266772591201885) rotate(298.0961945726613)">AUTHOR</text></g><g class="relationship"><path fill="#A5ABB6" stroke="none" d="M 40 0.5 L 61.11279121174654 0.5 L 61.11279121174654 -0.5 L 40 -0.5 Z M 91.11279121174654 0.5 L 112.22558242349308 0.5 L 112.22558242349308 3.5 L 119.22558242349308 0 L 112.22558242349308 -3.5 L 112.22558242349308 -0.5 L 91.11279121174654 -0.5 Z" class="outline" transform="translate(-550.7824430500356 -60.266772591201885) rotate(509.03001909839844)"/><text x="76.113" y="3" fill="#000" font-family="sans-serif" font-size="8" pointer-events="none" text-anchor="middle" transform="translate(-550.7824430500356 -60.266772591201885) rotate(509.03001909839844) rotate(180 76.11279121174654 0)">CITED</text></g><g class="relationship"><path fill="#A5ABB6" stroke="none" d="M 40 0.5 L 96.49452322255915 0.5 L 96.49452322255915 -0.5 L 40 -0.5 Z M 126.49452322255915 0.5 L 182.9890464451183 0.5 L 182.9890464451183 3.5 L 189.9890464451183 0 L 182.9890464451183 -3.5 L 182.9890464451183 -0.5 L 126.49452322255915 -0.5 Z" class="outline" transform="translate(-550.7824430500356 -60.266772591201885) rotate(316.31166241754727)"/><text x="111.495" y="3" fill="#000" font-family="sans-serif" font-size="8" pointer-events="none" text-anchor="middle" transform="translate(-550.7824430500356 -60.266772591201885) rotate(316.31166241754727)">CITED</text></g><g class="relationship"><path fill="#A5ABB6" stroke="none" d="M 40 0.5 L 62.48564720463834 0.5 L 62.48564720463834 -0.5 L 40 -0.5 Z M 92.48564720463834 0.5 L 114.97129440927668 0.5 L 114.97129440927668 3.5 L 121.97129440927668 0 L 114.97129440927668 -3.5 L 114.97129440927668 -0.5 L 92.48564720463834 -0.5 Z" class="outline" transform="translate(-446.3714303975022 63.559883058900766) rotate(229.86231138058906)"/><text x="77.486" y="3" fill="#000" font-family="sans-serif" font-size="8" pointer-events="none" text-anchor="middle" transform="translate(-446.3714303975022 63.559883058900766) rotate(229.86231138058906) rotate(180 77.48564720463834 0)">CITED</text></g><g class="relationship"><path fill="#A5ABB6" stroke="none" d="M 40 0.5 L 59.608256852403045 0.5 L 59.608256852403045 -0.5 L 40 -0.5 Z M 89.60825685240304 0.5 L 109.21651370480609 0.5 L 109.21651370480609 3.5 L 116.21651370480609 0 L 109.21651370480609 -3.5 L 109.21651370480609 -0.5 L 89.60825685240304 -0.5 Z" class="outline" transform="translate(-640.3064171364501 -188.28652582428248) rotate(415.0349780759634)"/><text x="74.608" y="3" fill="#000" font-family="sans-serif" font-size="8" pointer-events="none" text-anchor="middle" transform="translate(-640.3064171364501 -188.28652582428248) rotate(415.0349780759634)">CITED</text></g><g class="relationship"><path fill="#A5ABB6" stroke="none" d="M 40 0.5 L 131.65398816730232 0.5 L 131.65398816730232 -0.5 L 40 -0.5 Z M 165.21648816730232 0.5 L 256.87047633460463 0.5 L 256.87047633460463 3.5 L 263.87047633460463 0 L 256.87047633460463 -3.5 L 256.87047633460463 -0.5 L 165.21648816730232 -0.5 Z" class="outline" transform="translate(-9.452502231859924 -39.01339117151633) rotate(524.7883822122903)"/><text x="148.435" y="3" fill="#000" font-family="sans-serif" font-size="8" pointer-events="none" text-anchor="middle" transform="translate(-9.452502231859924 -39.01339117151633) rotate(524.7883822122903) rotate(180 148.43523816730232 0)">VENUE</text></g><g class="relationship"><path fill="#A5ABB6" stroke="none" d="M 40 0.5 L 80.65711608764849 0.5 L 80.65711608764849 -0.5 L 40 -0.5 Z M 114.21961608764849 0.5 L 154.87673217529698 0.5 L 154.87673217529698 3.5 L 161.87673217529698 0 L 154.87673217529698 -3.5 L 154.87673217529698 -0.5 L 114.21961608764849 -0.5 Z" class="outline" transform="translate(-290.38201170869786 -160.78440195697402) rotate(453.49149006895567)"/><text x="97.438" y="3" fill="#000" font-family="sans-serif" font-size="8" pointer-events="none" text-anchor="middle" transform="translate(-290.38201170869786 -160.78440195697402) rotate(453.49149006895567) rotate(180 97.43836608764849 0)">VENUE</text></g><g class="relationship"><path fill="#A5ABB6" stroke="none" d="M 40 0.5 L 136.7039501034683 0.5 L 136.7039501034683 -0.5 L 40 -0.5 Z M 170.2664501034683 0.5 L 266.9704002069366 0.5 L 266.9704002069366 3.5 L 273.9704002069366 0 L 266.9704002069366 -3.5 L 266.9704002069366 -0.5 L 170.2664501034683 -0.5 Z" class="outline" transform="translate(-5.8745312895211725 143.1192036312201) rotate(199.0352889621164)"/><text x="153.485" y="3" fill="#000" font-family="sans-serif" font-size="8" pointer-events="none" text-anchor="middle" transform="translate(-5.8745312895211725 143.1192036312201) rotate(199.0352889621164) rotate(180 153.4852001034683 0)">VENUE</text></g><g class="relationship"><path fill="#A5ABB6" stroke="none" d="M 40 0.5 L 108.4772619065086 0.5 L 108.4772619065086 -0.5 L 40 -0.5 Z M 142.0397619065086 0.5 L 210.5170238130172 0.5 L 210.5170238130172 3.5 L 217.5170238130172 0 L 210.5170238130172 -3.5 L 210.5170238130172 -0.5 L 142.0397619065086 -0.5 Z" class="outline" transform="translate(-89.07462741557094 -103.12019390926241) rotate(506.04397013676976)"/><text x="125.259" y="3" fill="#000" font-family="sans-serif" font-size="8" pointer-events="none" text-anchor="middle" transform="translate(-89.07462741557094 -103.12019390926241) rotate(506.04397013676976) rotate(180 125.2585119065086 0)">VENUE</text></g><g class="relationship"><path fill="#A5ABB6" stroke="none" d="M 40 0.5 L 96.3134563229191 0.5 L 96.3134563229191 -0.5 L 40 -0.5 Z M 129.87595632291908 0.5 L 186.1894126458382 0.5 L 186.1894126458382 3.5 L 193.1894126458382 0 L 186.1894126458382 -3.5 L 186.1894126458382 -0.5 L 129.87595632291908 -0.5 Z" class="outline" transform="translate(-109.38119963335222 171.15642297739402) rotate(214.01213457752158)"/><text x="113.095" y="3" fill="#000" font-family="sans-serif" font-size="8" pointer-events="none" text-anchor="middle" transform="translate(-109.38119963335222 171.15642297739402) rotate(214.01213457752158) rotate(180 113.0947063229191 0)">VENUE</text></g><g class="relationship"><path fill="#A5ABB6" stroke="none" d="M 40 0.5 L 54.929026873362886 0.5 L 54.929026873362886 -0.5 L 40 -0.5 Z M 88.49152687336289 0.5 L 103.42055374672577 0.5 L 103.42055374672577 3.5 L 110.42055374672577 0 L 103.42055374672577 -3.5 L 103.42055374672577 -0.5 L 88.49152687336289 -0.5 Z" class="outline" transform="translate(-222.14964127059477 167.76796223168117) rotate(237.63276493326453)"/><text x="71.71" y="3" fill="#000" font-family="sans-serif" font-size="8" pointer-events="none" text-anchor="middle" transform="translate(-222.14964127059477 167.76796223168117) rotate(237.63276493326453) rotate(180 71.71027687336289 0)">VENUE</text></g><g class="relationship"><path fill="#A5ABB6" stroke="none" d="M 40 0.5 L 110.27938457671914 0.5 L 110.27938457671914 -0.5 L 40 -0.5 Z M 143.84188457671914 0.5 L 214.12126915343828 0.5 L 214.12126915343828 3.5 L 221.12126915343828 0 L 214.12126915343828 -3.5 L 214.12126915343828 -0.5 L 143.84188457671914 -0.5 Z" class="outline" transform="translate(-172.40423781359942 -185.58636055392594) rotate(479.9269282133017)"/><text x="127.061" y="3" fill="#000" font-family="sans-serif" font-size="8" pointer-events="none" text-anchor="middle" transform="translate(-172.40423781359942 -185.58636055392594) rotate(479.9269282133017) rotate(180 127.06063457671914 0)">VENUE</text></g><g class="relationship"><path fill="#A5ABB6" stroke="none" d="M 40 0.5 L 163.66663599245078 0.5 L 163.66663599245078 -0.5 L 40 -0.5 Z M 197.22913599245078 0.5 L 320.89577198490156 0.5 L 320.89577198490156 3.5 L 327.89577198490156 0 L 320.89577198490156 -3.5 L 320.89577198490156 -0.5 L 197.22913599245078 -0.5 Z" class="outline" transform="translate(-25.587735138547487 -201.2931078446603) rotate(498.86585911625417)"/><text x="180.448" y="3" fill="#000" font-family="sans-serif" font-size="8" pointer-events="none" text-anchor="middle" transform="translate(-25.587735138547487 -201.2931078446603) rotate(498.86585911625417) rotate(180 180.44788599245078 0)">VENUE</text></g><g class="relationship"><path fill="#A5ABB6" stroke="none" d="M 40 0.5 L 85.78761995342046 0.5 L 85.78761995342046 -0.5 L 40 -0.5 Z M 119.35011995342046 0.5 L 165.13773990684092 0.5 L 165.13773990684092 3.5 L 172.13773990684092 0 L 165.13773990684092 -3.5 L 165.13773990684092 -0.5 L 119.35011995342046 -0.5 Z" class="outline" transform="translate(-472.8484288624995 167.3820907787991) rotate(323.3385188889139)"/><text x="102.569" y="3" fill="#000" font-family="sans-serif" font-size="8" pointer-events="none" text-anchor="middle" transform="translate(-472.8484288624995 167.3820907787991) rotate(323.3385188889139)">VENUE</text></g><g class="relationship"><path fill="#A5ABB6" stroke="none" d="M 40 0.5 L 179.36262150653033 0.5 L 179.36262150653033 -0.5 L 40 -0.5 Z M 212.92512150653033 0.5 L 352.28774301306066 0.5 L 352.28774301306066 3.5 L 359.28774301306066 0 L 352.28774301306066 -3.5 L 352.28774301306066 -0.5 L 212.92512150653033 -0.5 Z" class="outline" transform="translate(-692.6205258735338 126.59108088747405) rotate(347.58056452463916)"/><text x="196.144" y="3" fill="#000" font-family="sans-serif" font-size="8" pointer-events="none" text-anchor="middle" transform="translate(-692.6205258735338 126.59108088747405) rotate(347.58056452463916)">VENUE</text></g><g class="relationship"><path fill="#A5ABB6" stroke="none" d="M 40 0.5 L 40.92408696870609 0.5 L 40.92408696870609 -0.5 L 40 -0.5 Z M 74.48658696870609 0.5 L 75.41067393741218 0.5 L 75.41067393741218 3.5 L 82.41067393741218 0 L 75.41067393741218 -3.5 L 75.41067393741218 -0.5 L 74.48658696870609 -0.5 Z" class="outline" transform="translate(-332.50538392625884 159.43830927527665) rotate(284.1038333357415)"/><text x="57.705" y="3" fill="#000" font-family="sans-serif" font-size="8" pointer-events="none" text-anchor="middle" transform="translate(-332.50538392625884 159.43830927527665) rotate(284.1038333357415)">VENUE</text></g><g class="relationship"><path fill="#A5ABB6" stroke="none" d="M 40 0.5 L 112.97433584126546 0.5 L 112.97433584126546 -0.5 L 40 -0.5 Z M 146.53683584126546 0.5 L 219.51117168253091 0.5 L 219.51117168253091 3.5 L 226.51117168253091 0 L 219.51117168253091 -3.5 L 219.51117168253091 -0.5 L 146.53683584126546 -0.5 Z" class="outline" transform="translate(-36.30617545398397 49.385243335023745) rotate(181.86373409472662)"/><text x="129.756" y="3" fill="#000" font-family="sans-serif" font-size="8" pointer-events="none" text-anchor="middle" transform="translate(-36.30617545398397 49.385243335023745) rotate(181.86373409472662) rotate(180 129.75558584126546 0)">VENUE</text></g><g class="relationship"><path fill="#A5ABB6" stroke="none" d="M 40 0.5 L 56.736516476522 0.5 L 56.736516476522 -0.5 L 40 -0.5 Z M 90.299016476522 0.5 L 107.035532953044 0.5 L 107.035532953044 3.5 L 114.035532953044 0 L 107.035532953044 -3.5 L 107.035532953044 -0.5 L 90.299016476522 -0.5 Z" class="outline" transform="translate(-404.16656926665104 -75.15594909375116) rotate(408.7858478421383)"/><text x="73.518" y="3" fill="#000" font-family="sans-serif" font-size="8" pointer-events="none" text-anchor="middle" transform="translate(-404.16656926665104 -75.15594909375116) rotate(408.7858478421383)">VENUE</text></g><g class="relationship"><path fill="#A5ABB6" stroke="none" d="M 40 0.5 L 67.27338756118237 0.5 L 67.27338756118237 -0.5 L 40 -0.5 Z M 107.05073131118237 0.5 L 134.32411887236475 0.5 L 134.32411887236475 3.5 L 141.32411887236475 0 L 134.32411887236475 -3.5 L 134.32411887236475 -0.5 L 107.05073131118237 -0.5 Z" class="outline" transform="translate(-384.47557922361204 -219.1283114511607) rotate(345.36572873072305)"/><text x="87.162" y="3" fill="#000" font-family="sans-serif" font-size="8" pointer-events="none" text-anchor="middle" transform="translate(-384.47557922361204 -219.1283114511607) rotate(345.36572873072305)">AUTHOR</text></g><g class="relationship"><path fill="#A5ABB6" stroke="none" d="M 40 0.5 L 152.03039300984082 0.5 L 152.03039300984082 -0.5 L 40 -0.5 Z M 191.80773675984082 0.5 L 303.83812976968164 0.5 L 303.83812976968164 3.5 L 310.83812976968164 0 L 303.83812976968164 -3.5 L 303.83812976968164 -0.5 L 191.80773675984082 -0.5 Z" class="outline" transform="translate(-384.47557922361204 -219.1283114511607) rotate(517.1582964837562)"/><text x="171.919" y="3" fill="#000" font-family="sans-serif" font-size="8" pointer-events="none" text-anchor="middle" transform="translate(-384.47557922361204 -219.1283114511607) rotate(517.1582964837562) rotate(180 171.91906488484082 0)">AUTHOR</text></g><g class="relationship"><path fill="#A5ABB6" stroke="none" d="M 40 0.5 L 115.92724701205486 0.5 L 115.92724701205486 -0.5 L 40 -0.5 Z M 149.48974701205486 0.5 L 225.41699402410973 0.5 L 225.41699402410973 3.5 L 232.41699402410973 0 L 225.41699402410973 -3.5 L 225.41699402410973 -0.5 L 149.48974701205486 -0.5 Z" class="outline" transform="translate(-384.47557922361204 -219.1283114511607) rotate(432.52605469247084)"/><text x="132.708" y="3" fill="#000" font-family="sans-serif" font-size="8" pointer-events="none" text-anchor="middle" transform="translate(-384.47557922361204 -219.1283114511607) rotate(432.52605469247084)">VENUE</text></g><g class="relationship"><path fill="#A5ABB6" stroke="none" d="M 40 0.5 L 40.891863642888325 0.5 L 40.891863642888325 -0.5 L 40 -0.5 Z M 80.66920739288832 0.5 L 81.56107103577665 0.5 L 81.56107103577665 3.5 L 88.56107103577665 0 L 81.56107103577665 -3.5 L 81.56107103577665 -0.5 L 80.66920739288832 -0.5 Z" class="outline" transform="translate(-384.47557922361204 -219.1283114511607) rotate(264.09503789459336)"/><text x="60.781" y="3" fill="#000" font-family="sans-serif" font-size="8" pointer-events="none" text-anchor="middle" transform="translate(-384.47557922361204 -219.1283114511607) rotate(264.09503789459336) rotate(180 60.780535517888325 0)">AUTHOR</text></g><g class="relationship"><path fill="#A5ABB6" stroke="none" d="M 40 0.5 L 60.20402626019562 0.5 L 60.20402626019562 -0.5 L 40 -0.5 Z M 99.98137001019562 0.5 L 120.18539627039124 0.5 L 120.18539627039124 3.5 L 127.18539627039124 0 L 120.18539627039124 -3.5 L 120.18539627039124 -0.5 L 99.98137001019562 -0.5 Z" class="outline" transform="translate(-384.47557922361204 -219.1283114511607) rotate(202.54809158192802)"/><text x="80.093" y="3" fill="#000" font-family="sans-serif" font-size="8" pointer-events="none" text-anchor="middle" transform="translate(-384.47557922361204 -219.1283114511607) rotate(202.54809158192802) rotate(180 80.09269813519562 0)">AUTHOR</text></g><g class="relationship"><path fill="#A5ABB6" stroke="none" d="M 40 0.5 L 52.46839164347625 0.5 L 52.46839164347625 -0.5 L 40 -0.5 Z M 86.03089164347625 0.5 L 98.4992832869525 0.5 L 98.4992832869525 3.5 L 105.4992832869525 0 L 98.4992832869525 -3.5 L 98.4992832869525 -0.5 L 86.03089164347625 -0.5 Z" class="outline" transform="translate(-446.3714303975022 63.559883058900766) rotate(350.96763925402365)"/><text x="69.25" y="3" fill="#000" font-family="sans-serif" font-size="8" pointer-events="none" text-anchor="middle" transform="translate(-446.3714303975022 63.559883058900766) rotate(350.96763925402365)">VENUE</text></g></g><g class="layer nodes"><g class="node" transform="translate(-9.452502231859924,-39.01339117151633)"><circle cx="0" cy="0" r="40" fill="#57C7E3" stroke="#23b3d7" stroke-width="2" class="outline"/><text y="-5" fill="#FFF" font-family="sans-serif" font-size="10" pointer-events="none" text-anchor="middle">Modeling of</text><text y="5" fill="#FFF" font-family="sans-serif" font-size="10" pointer-events="none" text-anchor="middle">architectures</text><text y="15" fill="#FFF" font-family="sans-serif" font-size="10" pointer-events="none" text-anchor="middle">with UML panel</text></g><g class="node" transform="translate(-290.38201170869786,-160.78440195697402)"><circle cx="0" cy="0" r="40" fill="#57C7E3" stroke="#23b3d7" stroke-width="2" class="outline"/><text y="-10" fill="#FFF" font-family="sans-serif" font-size="10" pointer-events="none" text-anchor="middle">Integrating the</text><text y="0" fill="#FFF" font-family="sans-serif" font-size="10" pointer-events="none" text-anchor="middle">ConcernBASE</text><text y="10" fill="#FFF" font-family="sans-serif" font-size="10" pointer-events="none" text-anchor="middle">Approach with</text><text y="20" fill="#FFF" font-family="sans-serif" font-size="10" pointer-events="none" text-anchor="middle">SADL</text></g><g class="node" transform="translate(-5.8745312895211725,143.1192036312201)"><circle cx="0" cy="0" r="40" fill="#57C7E3" stroke="#23b3d7" stroke-width="2" class="outline"/><text y="-10" fill="#FFF" font-family="sans-serif" font-size="10" pointer-events="none" text-anchor="middle">Schedulability</text><text y="0" fill="#FFF" font-family="sans-serif" font-size="10" pointer-events="none" text-anchor="middle">analysis of real</text><text y="10" fill="#FFF" font-family="sans-serif" font-size="10" pointer-events="none" text-anchor="middle">time actor</text><text y="20" fill="#FFF" font-family="sans-serif" font-size="10" pointer-events="none" text-anchor="middle">systems using</text></g><g class="node" transform="translate(-89.07462741557094,-103.12019390926241)"><circle cx="0" cy="0" r="40" fill="#57C7E3" stroke="#23b3d7" stroke-width="2" class="outline"/><text y="-10" fill="#FFF" font-family="sans-serif" font-size="10" pointer-events="none" text-anchor="middle">Gathering</text><text y="0" fill="#FFF" font-family="sans-serif" font-size="10" pointer-events="none" text-anchor="middle">experience in</text><text y="10" fill="#FFF" font-family="sans-serif" font-size="10" pointer-events="none" text-anchor="middle">trust-based</text><text y="20" fill="#FFF" font-family="sans-serif" font-size="10" pointer-events="none" text-anchor="middle">interactions</text></g><g class="node" transform="translate(-109.38119963335222,171.15642297739402)"><circle cx="0" cy="0" r="40" fill="#57C7E3" stroke="#23b3d7" stroke-width="2" class="outline"/><text y="-15" fill="#FFF" font-family="sans-serif" font-size="10" pointer-events="none" text-anchor="middle">On the</text><text y="-5" fill="#FFF" font-family="sans-serif" font-size="10" pointer-events="none" text-anchor="middle">Formal</text><text y="5" fill="#FFF" font-family="sans-serif" font-size="10" pointer-events="none" text-anchor="middle">Modelling of</text><text y="15" fill="#FFF" font-family="sans-serif" font-size="10" pointer-events="none" text-anchor="middle">Trust in</text><text y="25" fill="#FFF" font-family="sans-serif" font-size="10" pointer-events="none" text-anchor="middle">Reputation-…</text></g><g class="node" transform="translate(-222.14964127059477,167.76796223168117)"><circle cx="0" cy="0" r="40" fill="#57C7E3" stroke="#23b3d7" stroke-width="2" class="outline"/><text y="5" fill="#FFF" font-family="sans-serif" font-size="10" pointer-events="none" text-anchor="middle">Knowledge-Ba…</text></g><g class="node" transform="translate(-172.40423781359942,-185.58636055392594)"><circle cx="0" cy="0" r="40" fill="#57C7E3" stroke="#23b3d7" stroke-width="2" class="outline"/><text y="-25" fill="#FFF" font-family="sans-serif" font-size="10" pointer-events="none" text-anchor="middle">A</text><text y="-15" fill="#FFF" font-family="sans-serif" font-size="10" pointer-events="none" text-anchor="middle">performance</text><text y="-5" fill="#FFF" font-family="sans-serif" font-size="10" pointer-events="none" text-anchor="middle">evaluation</text><text y="5" fill="#FFF" font-family="sans-serif" font-size="10" pointer-events="none" text-anchor="middle">framework for</text><text y="15" fill="#FFF" font-family="sans-serif" font-size="10" pointer-events="none" text-anchor="middle">nature inspired</text><text y="25" fill="#FFF" font-family="sans-serif" font-size="10" pointer-events="none" text-anchor="middle">routing</text><text y="35" fill="#FFF" font-family="sans-serif" font-size="10" pointer-events="none" text-anchor="middle">algorit…</text></g><g class="node" transform="translate(-25.587735138547487,-201.2931078446603)"><circle cx="0" cy="0" r="40" fill="#57C7E3" stroke="#23b3d7" stroke-width="2" class="outline"/><text y="-20" fill="#FFF" font-family="sans-serif" font-size="10" pointer-events="none" text-anchor="middle">BeeHive:</text><text y="-10" fill="#FFF" font-family="sans-serif" font-size="10" pointer-events="none" text-anchor="middle">An efficient</text><text y="0" fill="#FFF" font-family="sans-serif" font-size="10" pointer-events="none" text-anchor="middle">fault-tolerant</text><text y="10" fill="#FFF" font-family="sans-serif" font-size="10" pointer-events="none" text-anchor="middle">routing algorithm</text><text y="20" fill="#FFF" font-family="sans-serif" font-size="10" pointer-events="none" text-anchor="middle">inspired by</text><text y="30" fill="#FFF" font-family="sans-serif" font-size="10" pointer-events="none" text-anchor="middle">honey bee</text></g><g class="node" transform="translate(-472.8484288624995,167.3820907787991)"><circle cx="0" cy="0" r="40" fill="#57C7E3" stroke="#23b3d7" stroke-width="2" class="outline"/><text y="-20" fill="#FFF" font-family="sans-serif" font-size="10" pointer-events="none" text-anchor="middle">The</text><text y="-10" fill="#FFF" font-family="sans-serif" font-size="10" pointer-events="none" text-anchor="middle">K-Component</text><text y="0" fill="#FFF" font-family="sans-serif" font-size="10" pointer-events="none" text-anchor="middle">Architecture</text><text y="10" fill="#FFF" font-family="sans-serif" font-size="10" pointer-events="none" text-anchor="middle">Meta-model for</text><text y="20" fill="#FFF" font-family="sans-serif" font-size="10" pointer-events="none" text-anchor="middle">Self-Adaptive</text><text y="30" fill="#FFF" font-family="sans-serif" font-size="10" pointer-events="none" text-anchor="middle">Software</text></g><g class="node" transform="translate(-692.6205258735338,126.59108088747405)"><circle cx="0" cy="0" r="40" fill="#57C7E3" stroke="#23b3d7" stroke-width="2" class="outline"/><text y="-20" fill="#FFF" font-family="sans-serif" font-size="10" pointer-events="none" text-anchor="middle">Reflective</text><text y="-10" fill="#FFF" font-family="sans-serif" font-size="10" pointer-events="none" text-anchor="middle">Analysis and</text><text y="0" fill="#FFF" font-family="sans-serif" font-size="10" pointer-events="none" text-anchor="middle">Design for</text><text y="10" fill="#FFF" font-family="sans-serif" font-size="10" pointer-events="none" text-anchor="middle">Adapting Object</text><text y="20" fill="#FFF" font-family="sans-serif" font-size="10" pointer-events="none" text-anchor="middle">Run-Time</text><text y="30" fill="#FFF" font-family="sans-serif" font-size="10" pointer-events="none" text-anchor="middle">Behavior</text></g><g class="node" transform="translate(-332.50538392625884,159.43830927527665)"><circle cx="0" cy="0" r="40" fill="#57C7E3" stroke="#23b3d7" stroke-width="2" class="outline"/><text y="-15" fill="#FFF" font-family="sans-serif" font-size="10" pointer-events="none" text-anchor="middle">Dimensions</text><text y="-5" fill="#FFF" font-family="sans-serif" font-size="10" pointer-events="none" text-anchor="middle">of composition</text><text y="5" fill="#FFF" font-family="sans-serif" font-size="10" pointer-events="none" text-anchor="middle">models for</text><text y="15" fill="#FFF" font-family="sans-serif" font-size="10" pointer-events="none" text-anchor="middle">supporting</text><text y="25" fill="#FFF" font-family="sans-serif" font-size="10" pointer-events="none" text-anchor="middle">software ev…</text></g><g class="node" transform="translate(-550.7824430500356,-60.266772591201885)"><circle cx="0" cy="0" r="40" fill="#57C7E3" stroke="#23b3d7" stroke-width="2" class="outline"/><text y="-5" fill="#FFF" font-family="sans-serif" font-size="10" pointer-events="none" text-anchor="middle">A model for</text><text y="5" fill="#FFF" font-family="sans-serif" font-size="10" pointer-events="none" text-anchor="middle">developing</text><text y="15" fill="#FFF" font-family="sans-serif" font-size="10" pointer-events="none" text-anchor="middle">component-ba…</text></g><g class="node" transform="translate(-36.30617545398397,49.385243335023745)"><circle cx="0" cy="0" r="40" fill="#57C7E3" stroke="#23b3d7" stroke-width="2" class="outline"/><text y="-20" fill="#FFF" font-family="sans-serif" font-size="10" pointer-events="none" text-anchor="middle">Maximal</text><text y="-10" fill="#FFF" font-family="sans-serif" font-size="10" pointer-events="none" text-anchor="middle">Safe Set</text><text y="0" fill="#FFF" font-family="sans-serif" font-size="10" pointer-events="none" text-anchor="middle">Computation for</text><text y="10" fill="#FFF" font-family="sans-serif" font-size="10" pointer-events="none" text-anchor="middle">Idle Speed</text><text y="20" fill="#FFF" font-family="sans-serif" font-size="10" pointer-events="none" text-anchor="middle">Control of an</text><text y="30" fill="#FFF" font-family="sans-serif" font-size="10" pointer-events="none" text-anchor="middle">Automotive</text></g><g class="node" transform="translate(-302.6763631571756,40.71761767617484)"><circle cx="0" cy="0" r="40" fill="#8DCC93" stroke="#5db665" stroke-width="2" class="outline"/><text y="-5" fill="#604A0E" font-family="sans-serif" font-size="10" pointer-events="none" text-anchor="middle">Lecture Notes</text><text y="5" fill="#604A0E" font-family="sans-serif" font-size="10" pointer-events="none" text-anchor="middle">in Computer</text><text y="15" fill="#604A0E" font-family="sans-serif" font-size="10" pointer-events="none" text-anchor="middle">Science</text></g><g class="node" transform="translate(-404.16656926665104,-75.15594909375116)"><circle cx="0" cy="0" r="40" fill="#57C7E3" stroke="#23b3d7" stroke-width="2" class="outline"/><text y="-25" fill="#FFF" font-family="sans-serif" font-size="10" pointer-events="none" text-anchor="middle">An</text><text y="-15" fill="#FFF" font-family="sans-serif" font-size="10" pointer-events="none" text-anchor="middle">Efficient</text><text y="-5" fill="#FFF" font-family="sans-serif" font-size="10" pointer-events="none" text-anchor="middle">Component</text><text y="5" fill="#FFF" font-family="sans-serif" font-size="10" pointer-events="none" text-anchor="middle">Model for the</text><text y="15" fill="#FFF" font-family="sans-serif" font-size="10" pointer-events="none" text-anchor="middle">Construction of</text><text y="25" fill="#FFF" font-family="sans-serif" font-size="10" pointer-events="none" text-anchor="middle">Adaptive</text><text y="35" fill="#FFF" font-family="sans-serif" font-size="10" pointer-events="none" text-anchor="middle">Middl…</text></g><g class="node" transform="translate(-588.9587458523854,62.52037856759466)"><circle cx="0" cy="0" r="40" fill="#57C7E3" stroke="#23b3d7" stroke-width="2" class="outline"/><text y="0" fill="#FFF" font-family="sans-serif" font-size="10" pointer-events="none" text-anchor="middle">Getting started</text><text y="10" fill="#FFF" font-family="sans-serif" font-size="10" pointer-events="none" text-anchor="middle">with ASPECTJ</text></g><g class="node" transform="translate(-707.8012806840633,-82.93769475751634)"><circle cx="0" cy="0" r="40" fill="#F16667" stroke="#eb2728" stroke-width="2" class="outline"/><text y="0" fill="#FFF" font-family="sans-serif" font-size="10" pointer-events="none" text-anchor="middle">Nicolas</text><text y="10" fill="#FFF" font-family="sans-serif" font-size="10" pointer-events="none" text-anchor="middle">Pessemier</text></g><g class="node" transform="translate(-209.0339369846771,-264.93951372031125)"><circle cx="0" cy="0" r="40" fill="#F16667" stroke="#eb2728" stroke-width="2" class="outline"/><text y="5" fill="#FFF" font-family="sans-serif" font-size="10" pointer-events="none" text-anchor="middle">Lionel Seinturier</text></g><g class="node" transform="translate(-538.8809893148373,-283.2370164813538)"><circle cx="0" cy="0" r="40" fill="#F16667" stroke="#eb2728" stroke-width="2" class="outline"/><text y="5" fill="#FFF" font-family="sans-serif" font-size="10" pointer-events="none" text-anchor="middle">Thierry Coupaye</text></g><g class="node" transform="translate(-397.7017728603165,-347.0072260061037)"><circle cx="0" cy="0" r="40" fill="#F16667" stroke="#eb2728" stroke-width="2" class="outline"/><text y="0" fill="#FFF" font-family="sans-serif" font-size="10" pointer-events="none" text-anchor="middle">Laurence</text><text y="10" fill="#FFF" font-family="sans-serif" font-size="10" pointer-events="none" text-anchor="middle">Duchien</text></g><g class="node" transform="translate(-687.3083532287048,21.668945798194784)"><circle cx="0" cy="0" r="40" fill="#57C7E3" stroke="#23b3d7" stroke-width="2" class="outline"/><text y="-15" fill="#FFF" font-family="sans-serif" font-size="10" pointer-events="none" text-anchor="middle">ArchJava:</text><text y="-5" fill="#FFF" font-family="sans-serif" font-size="10" pointer-events="none" text-anchor="middle">connecting</text><text y="5" fill="#FFF" font-family="sans-serif" font-size="10" pointer-events="none" text-anchor="middle">software</text><text y="15" fill="#FFF" font-family="sans-serif" font-size="10" pointer-events="none" text-anchor="middle">architecture to</text><text y="25" fill="#FFF" font-family="sans-serif" font-size="10" pointer-events="none" text-anchor="middle">implementa…</text></g><g class="node" transform="translate(-384.47557922361204,-219.1283114511607)"><circle cx="0" cy="0" r="40" fill="#57C7E3" stroke="#23b3d7" stroke-width="2" class="outline"/><text y="-20" fill="#FFF" font-family="sans-serif" font-size="10" pointer-events="none" text-anchor="middle">A</text><text y="-10" fill="#FFF" font-family="sans-serif" font-size="10" pointer-events="none" text-anchor="middle">Component</text><text y="0" fill="#FFF" font-family="sans-serif" font-size="10" pointer-events="none" text-anchor="middle">Model</text><text y="10" fill="#FFF" font-family="sans-serif" font-size="10" pointer-events="none" text-anchor="middle">Engineered with</text><text y="20" fill="#FFF" font-family="sans-serif" font-size="10" pointer-events="none" text-anchor="middle">Components</text><text y="30" fill="#FFF" font-family="sans-serif" font-size="10" pointer-events="none" text-anchor="middle">and Aspe…</text></g><g class="node" transform="translate(-446.3714303975022,63.559883058900766)"><circle cx="0" cy="0" r="40" fill="#57C7E3" stroke="#23b3d7" stroke-width="2" class="outline"/><text y="-15" fill="#FFF" font-family="sans-serif" font-size="10" pointer-events="none" text-anchor="middle">Modular</text><text y="-5" fill="#FFF" font-family="sans-serif" font-size="10" pointer-events="none" text-anchor="middle">design of</text><text y="5" fill="#FFF" font-family="sans-serif" font-size="10" pointer-events="none" text-anchor="middle">man-machine</text><text y="15" fill="#FFF" font-family="sans-serif" font-size="10" pointer-events="none" text-anchor="middle">interfaces with</text><text y="25" fill="#FFF" font-family="sans-serif" font-size="10" pointer-events="none" text-anchor="middle">larissa</text></g><g class="node" transform="translate(-640.3064171364501,-188.28652582428248)"><circle cx="0" cy="0" r="40" fill="#57C7E3" stroke="#23b3d7" stroke-width="2" class="outline"/><text y="-20" fill="#FFF" font-family="sans-serif" font-size="10" pointer-events="none" text-anchor="middle">Taming</text><text y="-10" fill="#FFF" font-family="sans-serif" font-size="10" pointer-events="none" text-anchor="middle">Dynamically</text><text y="0" fill="#FFF" font-family="sans-serif" font-size="10" pointer-events="none" text-anchor="middle">Adaptive</text><text y="10" fill="#FFF" font-family="sans-serif" font-size="10" pointer-events="none" text-anchor="middle">Systems using</text><text y="20" fill="#FFF" font-family="sans-serif" font-size="10" pointer-events="none" text-anchor="middle">models and</text><text y="30" fill="#FFF" font-family="sans-serif" font-size="10" pointer-events="none" text-anchor="middle">aspects</text></g></g></svg>