<svg xmlns="http://www.w3.org/2000/svg" width="737.888" height="427.695" viewBox="-393.551 -345.442 737.888 427.695"><title>Neo4j Graph Visualization</title><desc>Created using Neo4j (http://www.neo4j.com/)</desc><g class="layer relationships"><g class="relationship"><path fill="#A5ABB6" stroke="none" d="M 40 0.5 L 53.14740491788365 0.5 L 53.14740491788365 -0.5 L 40 -0.5 Z M 109.37396741788365 0.5 L 122.5213723357673 0.5 L 122.5213723357673 3.5 L 129.5213723357673 0 L 122.5213723357673 -3.5 L 122.5213723357673 -0.5 L 109.37396741788365 -0.5 Z" class="outline" transform="translate(48.26632159659482 -291.87059928070823) rotate(183.23669312115027)"/><text x="81.261" y="3" fill="#000" font-family="sans-serif" font-size="8" pointer-events="none" text-anchor="middle" transform="translate(48.26632159659482 -291.87059928070823) rotate(183.23669312115027) rotate(180 81.26068616788365 0)">CO_AUTHOR</text></g><g class="relationship"><path fill="#A5ABB6" stroke="none" d="M 40 0.5 L 51.92596482385156 0.5 L 51.92596482385156 -0.5 L 40 -0.5 Z M 108.15252732385156 0.5 L 120.07849214770312 0.5 L 120.07849214770312 3.5 L 127.07849214770312 0 L 120.07849214770312 -3.5 L 120.07849214770312 -0.5 L 108.15252732385156 -0.5 Z" class="outline" transform="translate(-10.877406614464249 38.25266660629978) rotate(235.44771312385478)"/><text x="80.039" y="3" fill="#000" font-family="sans-serif" font-size="8" pointer-events="none" text-anchor="middle" transform="translate(-10.877406614464249 38.25266660629978) rotate(235.44771312385478) rotate(180 80.03924607385156 0)">CO_AUTHOR</text></g><g class="relationship"><path fill="#A5ABB6" stroke="none" d="M 40 0.5 L 41.96831025022381 0.5 L 41.96831025022381 -0.5 L 40 -0.5 Z M 94.19487275022381 0.5 L 96.16318300044762 0.5 L 96.16318300044762 3.5 L 103.16318300044762 0 L 96.16318300044762 -3.5 L 96.16318300044762 -0.5 L 94.19487275022381 -0.5 Z" class="outline" transform="translate(-105.63732351665007 -99.35467581059646) rotate(296.16177666132785)"/><text x="68.082" y="3" fill="#000" font-family="sans-serif" font-size="8" pointer-events="none" text-anchor="middle" transform="translate(-105.63732351665007 -99.35467581059646) rotate(296.16177666132785)">CO_AUTH…</text></g><g class="relationship"><path fill="#A5ABB6" stroke="none" d="M 40 0.5 L 102.37574328225566 0.5 L 102.37574328225566 -0.5 L 40 -0.5 Z M 158.60230578225566 0.5 L 220.9780490645113 0.5 L 220.9780490645113 3.5 L 227.9780490645113 0 L 220.9780490645113 -3.5 L 220.9780490645113 -0.5 L 158.60230578225566 -0.5 Z" class="outline" transform="translate(-10.877406614464249 38.25266660629978) rotate(263.2196847582901)"/><text x="130.489" y="3" fill="#000" font-family="sans-serif" font-size="8" pointer-events="none" text-anchor="middle" transform="translate(-10.877406614464249 38.25266660629978) rotate(263.2196847582901) rotate(180 130.48902453225566 0)">CO_AUTHOR</text></g><g class="relationship"><path fill="#A5ABB6" stroke="none" d="M 40 0.5 L 104.8779927487659 0.5 L 104.8779927487659 -0.5 L 40 -0.5 Z M 161.1045552487659 0.5 L 225.9825479975318 0.5 L 225.9825479975318 3.5 L 232.9825479975318 0 L 225.9825479975318 -3.5 L 225.9825479975318 -0.5 L 161.1045552487659 -0.5 Z" class="outline" transform="translate(-42.515649251667625 -227.8511785054368) rotate(409.02881223137126)"/><text x="132.991" y="3" fill="#000" font-family="sans-serif" font-size="8" pointer-events="none" text-anchor="middle" transform="translate(-42.515649251667625 -227.8511785054368) rotate(409.02881223137126)">CO_AUTHOR</text></g><g class="relationship"><path fill="#A5ABB6" stroke="none" d="M 40 0.5 L 47.93420416909382 0.5 L 47.93420416909382 -0.5 L 40 -0.5 Z M 104.16076666909382 0.5 L 112.09497083818763 0.5 L 112.09497083818763 3.5 L 119.09497083818763 0 L 112.09497083818763 -3.5 L 112.09497083818763 -0.5 L 104.16076666909382 -0.5 Z" class="outline" transform="translate(-10.877406614464249 38.25266660629978) rotate(337.8471749064138)"/><text x="76.047" y="3" fill="#000" font-family="sans-serif" font-size="8" pointer-events="none" text-anchor="middle" transform="translate(-10.877406614464249 38.25266660629978) rotate(337.8471749064138)">CO_AUTHOR</text></g><g class="relationship"><path fill="#A5ABB6" stroke="none" d="M 40 0.5 L 95.51052984482504 0.5 L 95.51052984482504 -0.5 L 40 -0.5 Z M 151.73709234482504 0.5 L 207.2476221896501 0.5 L 207.2476221896501 3.5 L 214.2476221896501 0 L 207.2476221896501 -3.5 L 207.2476221896501 -0.5 L 151.73709234482504 -0.5 Z" class="outline" transform="translate(-105.63732351665007 -99.35467581059646) rotate(377.77485903530624)"/><text x="123.624" y="3" fill="#000" font-family="sans-serif" font-size="8" pointer-events="none" text-anchor="middle" transform="translate(-105.63732351665007 -99.35467581059646) rotate(377.77485903530624)">CO_AUTHOR</text></g><g class="relationship"><path fill="#A5ABB6" stroke="none" d="M 40 0.5 L 206.8631691579812 0.5 L 206.8631691579812 -0.5 L 40 -0.5 Z M 263.0897316579812 0.5 L 429.9529008159624 0.5 L 429.9529008159624 3.5 L 436.9529008159624 0 L 429.9529008159624 -3.5 L 429.9529008159624 -0.5 L 263.0897316579812 -0.5 Z" class="outline" transform="translate(136.47339127211288 -21.73860032642024) rotate(537.7999890459309)"/><text x="234.976" y="3" fill="#000" font-family="sans-serif" font-size="8" pointer-events="none" text-anchor="middle" transform="translate(136.47339127211288 -21.73860032642024) rotate(537.7999890459309) rotate(180 234.9764504079812 0)">CO_AUTHOR</text></g><g class="relationship"><path fill="#A5ABB6" stroke="none" d="M 40 0.5 L 154.75882485164706 0.5 L 154.75882485164706 -0.5 L 40 -0.5 Z M 210.98538735164706 0.5 L 325.7442122032941 0.5 L 325.7442122032941 3.5 L 332.7442122032941 0 L 325.7442122032941 -3.5 L 325.7442122032941 -0.5 L 210.98538735164706 -0.5 Z" class="outline" transform="translate(-42.515649251667625 -227.8511785054368) rotate(502.9809855288365)"/><text x="182.872" y="3" fill="#000" font-family="sans-serif" font-size="8" pointer-events="none" text-anchor="middle" transform="translate(-42.515649251667625 -227.8511785054368) rotate(502.9809855288365) rotate(180 182.87210610164706 0)">CO_AUTHOR</text></g><g class="relationship"><path fill="#A5ABB6" stroke="none" d="M 40 0.5 L 95.06300532318433 0.5 L 95.06300532318433 -0.5 L 40 -0.5 Z M 151.2895678231843 0.5 L 206.35257314636866 0.5 L 206.35257314636866 3.5 L 213.35257314636866 0 L 206.35257314636866 -3.5 L 206.35257314636866 -0.5 L 151.2895678231843 -0.5 Z" class="outline" transform="translate(-105.63732351665007 -99.35467581059646) rotate(517.7515291023267)"/><text x="123.176" y="3" fill="#000" font-family="sans-serif" font-size="8" pointer-events="none" text-anchor="middle" transform="translate(-105.63732351665007 -99.35467581059646) rotate(517.7515291023267) rotate(180 123.17628657318433 0)">CO_AUTHOR</text></g><g class="relationship"><path fill="#A5ABB6" stroke="none" d="M 40 0.5 L 134.32594753263504 0.5 L 134.32594753263504 -0.5 L 40 -0.5 Z M 190.55251003263504 0.5 L 284.8784575652701 0.5 L 284.8784575652701 3.5 L 291.8784575652701 0 L 284.8784575652701 -3.5 L 284.8784575652701 -0.5 L 190.55251003263504 -0.5 Z" class="outline" transform="translate(-10.877406614464249 38.25266660629978) rotate(187.2150695456956)"/><text x="162.439" y="3" fill="#000" font-family="sans-serif" font-size="8" pointer-events="none" text-anchor="middle" transform="translate(-10.877406614464249 38.25266660629978) rotate(187.2150695456956) rotate(180 162.43922878263504 0)">CO_AUTHOR</text></g><g class="relationship"><path fill="#A5ABB6" stroke="none" d="M 40 0.5 L 65.69604032240917 0.5 L 65.69604032240917 -0.5 L 40 -0.5 Z M 121.92260282240917 0.5 L 147.61864314481835 0.5 L 147.61864314481835 3.5 L 154.61864314481835 0 L 147.61864314481835 -3.5 L 147.61864314481835 -0.5 L 121.92260282240917 -0.5 Z" class="outline" transform="translate(-197.37780377230567 -229.40071359182048) rotate(501.4351624948217)"/><text x="93.809" y="3" fill="#000" font-family="sans-serif" font-size="8" pointer-events="none" text-anchor="middle" transform="translate(-197.37780377230567 -229.40071359182048) rotate(501.4351624948217) rotate(180 93.80932157240917 0)">CO_AUTHOR</text></g><g class="relationship"><path fill="#A5ABB6" stroke="none" d="M 40 0.5 L 40.8197522677704 0.5 L 40.8197522677704 -0.5 L 40 -0.5 Z M 93.0463147677704 0.5 L 93.8660670355408 0.5 L 93.8660670355408 3.5 L 100.8660670355408 0 L 93.8660670355408 -3.5 L 93.8660670355408 -0.5 L 93.0463147677704 -0.5 Z" class="outline" transform="translate(140.84644465069744 -276.1659882090183) rotate(461.34061681461526)"/><text x="66.933" y="3" fill="#000" font-family="sans-serif" font-size="8" pointer-events="none" text-anchor="middle" transform="translate(140.84644465069744 -276.1659882090183) rotate(461.34061681461526) rotate(180 66.9330335177704 0)">CO_AUTH…</text></g><g class="relationship"><path fill="#A5ABB6" stroke="none" d="M 40 0.5 L 83.56393864634474 0.5 L 83.56393864634474 -0.5 L 40 -0.5 Z M 139.79050114634475 0.5 L 183.35443979268948 0.5 L 183.35443979268948 3.5 L 190.35443979268948 0 L 183.35443979268948 -3.5 L 183.35443979268948 -0.5 L 139.79050114634475 -0.5 Z" class="outline" transform="translate(113.1463651627478 -138.05025978382136) rotate(324.3526699871758)"/><text x="111.677" y="3" fill="#000" font-family="sans-serif" font-size="8" pointer-events="none" text-anchor="middle" transform="translate(113.1463651627478 -138.05025978382136) rotate(324.3526699871758)">CO_AUTHOR</text></g><g class="relationship"><path fill="#A5ABB6" stroke="none" d="M 40 0.5 L 48.15537637207538 0.5 L 48.15537637207538 -0.5 L 40 -0.5 Z M 104.38193887207538 0.5 L 112.53731524415076 0.5 L 112.53731524415076 3.5 L 119.53731524415076 0 L 112.53731524415076 -3.5 L 112.53731524415076 -0.5 L 104.38193887207538 -0.5 Z" class="outline" transform="translate(140.84644465069744 -276.1659882090183) rotate(361.38871845291754)"/><text x="76.269" y="3" fill="#000" font-family="sans-serif" font-size="8" pointer-events="none" text-anchor="middle" transform="translate(140.84644465069744 -276.1659882090183) rotate(361.38871845291754)">CO_AUTHOR</text></g><g class="relationship"><path fill="#A5ABB6" stroke="none" d="M 40 0.5 L 93.01683452130291 0.5 L 93.01683452130291 -0.5 L 40 -0.5 Z M 149.2433970213029 0.5 L 202.26023154260582 0.5 L 202.26023154260582 3.5 L 209.26023154260582 0 L 202.26023154260582 -3.5 L 202.26023154260582 -0.5 L 149.2433970213029 -0.5 Z" class="outline" transform="translate(300.3369007703349 -272.29954771917113) rotate(460.4192142560905)"/><text x="121.13" y="3" fill="#000" font-family="sans-serif" font-size="8" pointer-events="none" text-anchor="middle" transform="translate(300.3369007703349 -272.29954771917113) rotate(460.4192142560905) rotate(180 121.13011577130291 0)">CO_AUTHOR</text></g><g class="relationship"><path fill="#A5ABB6" stroke="none" d="M 40 0.5 L 58.51834972142362 0.5 L 58.51834972142362 -0.5 L 40 -0.5 Z M 114.74491222142362 0.5 L 133.26326194284724 0.5 L 133.26326194284724 3.5 L 140.26326194284724 0 L 133.26326194284724 -3.5 L 133.26326194284724 -0.5 L 114.74491222142362 -0.5 Z" class="outline" transform="translate(113.1463651627478 -138.05025978382136) rotate(397.96762428450256)"/><text x="86.632" y="3" fill="#000" font-family="sans-serif" font-size="8" pointer-events="none" text-anchor="middle" transform="translate(113.1463651627478 -138.05025978382136) rotate(397.96762428450256)">CO_AUTHOR</text></g><g class="relationship"><path fill="#A5ABB6" stroke="none" d="M 40 0.5 L 105.40803755665979 0.5 L 105.40803755665979 -0.5 L 40 -0.5 Z M 161.6346000566598 0.5 L 227.04263761331958 0.5 L 227.04263761331958 3.5 L 234.04263761331958 0 L 227.04263761331958 -3.5 L 227.04263761331958 -0.5 L 161.6346000566598 -0.5 Z" class="outline" transform="translate(140.84644465069744 -276.1659882090183) rotate(425.3233324446175)"/><text x="133.521" y="3" fill="#000" font-family="sans-serif" font-size="8" pointer-events="none" text-anchor="middle" transform="translate(140.84644465069744 -276.1659882090183) rotate(425.3233324446175)">CO_AUTHOR</text></g></g><g class="layer nodes"><g class="node" transform="translate(48.26632159659482,-291.87059928070823)"><circle cx="0" cy="0" r="40" fill="#F16667" stroke="#eb2728" stroke-width="2" class="outline"/><text y="0" fill="#FFF" font-family="sans-serif" font-size="10" pointer-events="none" text-anchor="middle">Alaa M.</text><text y="10" fill="#FFF" font-family="sans-serif" font-size="10" pointer-events="none" text-anchor="middle">Al-Obaidi</text></g><g class="node" transform="translate(-120.98463202014943,-301.4419303492969)"><circle cx="0" cy="0" r="40" fill="#F16667" stroke="#eb2728" stroke-width="2" class="outline"/><text y="5" fill="#FFF" font-family="sans-serif" font-size="10" pointer-events="none" text-anchor="middle">Sai Peck Lee</text></g><g class="node" transform="translate(-10.877406614464249,38.25266660629978)"><circle cx="0" cy="0" r="40" fill="#F16667" stroke="#eb2728" stroke-width="2" class="outline"/><text y="5" fill="#FFF" font-family="sans-serif" font-size="10" pointer-events="none" text-anchor="middle">Thomas Weigert</text></g><g class="node" transform="translate(-105.63732351665007,-99.35467581059646)"><circle cx="0" cy="0" r="40" fill="#F16667" stroke="#eb2728" stroke-width="2" class="outline"/><text y="5" fill="#FFF" font-family="sans-serif" font-size="10" pointer-events="none" text-anchor="middle">David Garlan</text></g><g class="node" transform="translate(-42.515649251667625,-227.8511785054368)"><circle cx="0" cy="0" r="40" fill="#F16667" stroke="#eb2728" stroke-width="2" class="outline"/><text y="5" fill="#FFF" font-family="sans-serif" font-size="10" pointer-events="none" text-anchor="middle">John Knapman</text></g><g class="node" transform="translate(136.47339127211288,-21.73860032642024)"><circle cx="0" cy="0" r="40" fill="#F16667" stroke="#eb2728" stroke-width="2" class="outline"/><text y="0" fill="#FFF" font-family="sans-serif" font-size="10" pointer-events="none" text-anchor="middle">Birger</text><text y="10" fill="#FFF" font-family="sans-serif" font-size="10" pointer-events="none" text-anchor="middle">Møller-Pedersen</text></g><g class="node" transform="translate(-340.12795188731053,-3.4293323073340645)"><circle cx="0" cy="0" r="40" fill="#F16667" stroke="#eb2728" stroke-width="2" class="outline"/><text y="5" fill="#FFF" font-family="sans-serif" font-size="10" pointer-events="none" text-anchor="middle">Bran Selic</text></g><g class="node" transform="translate(-197.37780377230567,-229.40071359182048)"><circle cx="0" cy="0" r="40" fill="#F16667" stroke="#eb2728" stroke-width="2" class="outline"/><text y="5" fill="#FFF" font-family="sans-serif" font-size="10" pointer-events="none" text-anchor="middle">Caroline Brun</text></g><g class="node" transform="translate(-349.55074381129475,-108.07547887364493)"><circle cx="0" cy="0" r="40" fill="#F16667" stroke="#eb2728" stroke-width="2" class="outline"/><text y="5" fill="#FFF" font-family="sans-serif" font-size="10" pointer-events="none" text-anchor="middle">Caroline Hagège</text></g><g class="node" transform="translate(140.84644465069744,-276.1659882090183)"><circle cx="0" cy="0" r="40" fill="#F16667" stroke="#eb2728" stroke-width="2" class="outline"/><text y="5" fill="#FFF" font-family="sans-serif" font-size="10" pointer-events="none" text-anchor="middle">John Thornton</text></g><g class="node" transform="translate(113.1463651627478,-138.05025978382136)"><circle cx="0" cy="0" r="40" fill="#F16667" stroke="#eb2728" stroke-width="2" class="outline"/><text y="5" fill="#FFF" font-family="sans-serif" font-size="10" pointer-events="none" text-anchor="middle">Andrew Srbic</text></g><g class="node" transform="translate(300.3369007703349,-272.29954771917113)"><circle cx="0" cy="0" r="40" fill="#F16667" stroke="#eb2728" stroke-width="2" class="outline"/><text y="5" fill="#FFF" font-family="sans-serif" font-size="10" pointer-events="none" text-anchor="middle">Linda Main</text></g><g class="node" transform="translate(255.2584426933645,-27.149398532848423)"><circle cx="0" cy="0" r="40" fill="#F16667" stroke="#eb2728" stroke-width="2" class="outline"/><text y="5" fill="#FFF" font-family="sans-serif" font-size="10" pointer-events="none" text-anchor="middle">Mahsa Chitsaz</text></g></g></svg>