<svg xmlns="http://www.w3.org/2000/svg" width="576.641" height="265.833" viewBox="-269.866 -30.128 576.641 265.833"><title>Neo4j Graph Visualization</title><desc>Created using Neo4j (http://www.neo4j.com/)</desc><g class="layer relationships"><g class="relationship"><path fill="#A5ABB6" stroke="none" d="M 40 0.5 L 56.18686199940774 0.5 L 56.18686199940774 -0.5 L 40 -0.5 Z M 111.53061199940774 0.5 L 127.71747399881548 0.5 L 127.71747399881548 3.5 L 134.71747399881548 0 L 127.71747399881548 -3.5 L 127.71747399881548 -0.5 L 111.53061199940774 -0.5 Z" class="outline" transform="translate(52.38796003607143 13.872388738561028) rotate(364.4853517862226)"/><text x="83.859" y="3" fill="#000" font-family="sans-serif" font-size="8" pointer-events="none" text-anchor="middle" transform="translate(52.38796003607143 13.872388738561028) rotate(364.4853517862226)">HAS_ENTITY</text></g><g class="relationship"><path fill="#A5ABB6" stroke="none" d="M 40 0.5 L 72.78124285274465 0.5 L 72.78124285274465 -0.5 L 40 -0.5 Z M 128.12499285274464 0.5 L 160.9062357054893 0.5 L 160.9062357054893 3.5 L 167.9062357054893 0 L 160.9062357054893 -3.5 L 160.9062357054893 -0.5 L 128.12499285274464 -0.5 Z" class="outline" transform="translate(52.38796003607143 13.872388738561028) rotate(537.1097181076229)"/><text x="100.453" y="3" fill="#000" font-family="sans-serif" font-size="8" pointer-events="none" text-anchor="middle" transform="translate(52.38796003607143 13.872388738561028) rotate(537.1097181076229) rotate(180 100.45311785274465 0)">HAS_ENTITY</text></g><g class="relationship"><path fill="#A5ABB6" stroke="none" d="M 40 0.5 L 46.657087255055 0.5 L 46.657087255055 -0.5 L 40 -0.5 Z M 80.215681005055 0.5 L 86.87276826011 0.5 L 86.87276826011 3.5 L 93.87276826011 0 L 86.87276826011 -3.5 L 86.87276826011 -0.5 L 80.215681005055 -0.5 Z" class="outline" transform="translate(-155.2538031444961 24.355757876943755) rotate(405.43622962424695)"/><text x="63.436" y="3" fill="#000" font-family="sans-serif" font-size="8" pointer-events="none" text-anchor="middle" transform="translate(-155.2538031444961 24.355757876943755) rotate(405.43622962424695)">ABOUT</text></g><g class="relationship"><path fill="#A5ABB6" stroke="none" d="M 40 0.5 L 44.402471863039764 0.5 L 44.402471863039764 -0.5 L 40 -0.5 Z M 77.96106561303976 0.5 L 82.36353747607953 0.5 L 82.36353747607953 3.5 L 89.36353747607953 0 L 82.36353747607953 -3.5 L 82.36353747607953 -0.5 L 77.96106561303976 -0.5 Z" class="outline" transform="translate(226.57033730518887 27.536032813462825) rotate(433.747450417173)"/><text x="61.182" y="3" fill="#000" font-family="sans-serif" font-size="8" pointer-events="none" text-anchor="middle" transform="translate(226.57033730518887 27.536032813462825) rotate(433.747450417173)">ABOUT</text></g><g class="relationship"><path fill="#A5ABB6" stroke="none" d="M 40 0.5 L 53.58098245357613 0.5 L 53.58098245357613 -0.5 L 40 -0.5 Z M 111.44426370357613 0.5 L 125.02524615715225 0.5 L 125.02524615715225 3.5 L 132.02524615715225 0 L 125.02524615715225 -3.5 L 125.02524615715225 -0.5 L 111.44426370357613 -0.5 Z" class="outline" transform="translate(-61.31492288984244 119.73607480935365) rotate(523.0483980841464)"/><text x="82.513" y="3" fill="#000" font-family="sans-serif" font-size="8" pointer-events="none" text-anchor="middle" transform="translate(-61.31492288984244 119.73607480935365) rotate(523.0483980841464) rotate(180 82.51262307857613 0)">SUB_CAT_OF</text></g><g class="relationship"><path fill="#A5ABB6" stroke="none" d="M 40 0.5 L 60.10124187915774 0.5 L 60.10124187915774 -0.5 L 40 -0.5 Z M 117.96452312915774 0.5 L 138.06576500831548 0.5 L 138.06576500831548 3.5 L 145.06576500831548 0 L 138.06576500831548 -3.5 L 138.06576500831548 -0.5 L 117.96452312915774 -0.5 Z" class="outline" transform="translate(-61.31492288984244 119.73607480935365) rotate(382.88526592028757)"/><text x="89.033" y="3" fill="#000" font-family="sans-serif" font-size="8" pointer-events="none" text-anchor="middle" transform="translate(-61.31492288984244 119.73607480935365) rotate(382.88526592028757)">SUB_CAT_OF</text></g></g><g class="layer nodes"><g class="node" transform="translate(52.38796003607143,13.872388738561028)"><circle cx="0" cy="0" r="40" fill="#57C7E3" stroke="#23b3d7" stroke-width="2" class="outline"/><text y="-20" fill="#FFF" font-family="sans-serif" font-size="10" pointer-events="none" text-anchor="middle">Securing a</text><text y="-10" fill="#FFF" font-family="sans-serif" font-size="10" pointer-events="none" text-anchor="middle">Node.js +</text><text y="0" fill="#FFF" font-family="sans-serif" font-size="10" pointer-events="none" text-anchor="middle">RethinkDB +</text><text y="10" fill="#FFF" font-family="sans-serif" font-size="10" pointer-events="none" text-anchor="middle">TLS setup on</text><text y="20" fill="#FFF" font-family="sans-serif" font-size="10" pointer-events="none" text-anchor="middle">Docker</text><text y="30" fill="#FFF" font-family="sans-serif" font-size="10" pointer-events="none" text-anchor="middle">containers</text></g><g class="node" transform="translate(226.57033730518887,27.536032813462825)"><circle cx="0" cy="0" r="40" fill="#DA7194" stroke="#cc3c6c" stroke-width="2" class="outline"/><text y="5" fill="#FFF" font-family="sans-serif" font-size="10" pointer-events="none" text-anchor="middle">https://en.wikip…</text></g><g class="node" transform="translate(-155.2538031444961,24.355757876943755)"><circle cx="0" cy="0" r="40" fill="#DA7194" stroke="#cc3c6c" stroke-width="2" class="outline"/><text y="5" fill="#FFF" font-family="sans-serif" font-size="10" pointer-events="none" text-anchor="middle">https://en.wikip…</text></g><g class="node" transform="translate(-61.31492288984244,119.73607480935365)"><circle cx="0" cy="0" r="40" fill="#569480" stroke="#447666" stroke-width="2" class="outline"/><text y="5" fill="#FFF" font-family="sans-serif" font-size="10" pointer-events="none" text-anchor="middle">RethinkDB</text></g><g class="node" transform="translate(262.7755349381311,151.72986717203565)"><circle cx="0" cy="0" r="40" fill="#569480" stroke="#447666" stroke-width="2" class="outline"/><text y="-10" fill="#FFF" font-family="sans-serif" font-size="10" pointer-events="none" text-anchor="middle">NoSQL</text><text y="0" fill="#FFF" font-family="sans-serif" font-size="10" pointer-events="none" text-anchor="middle">database</text><text y="10" fill="#FFF" font-family="sans-serif" font-size="10" pointer-events="none" text-anchor="middle">management</text><text y="20" fill="#FFF" font-family="sans-serif" font-size="10" pointer-events="none" text-anchor="middle">system</text></g><g class="node" transform="translate(-225.86590998973566,169.89241000122757)"><circle cx="0" cy="0" r="40" fill="#569480" stroke="#447666" stroke-width="2" class="outline"/><text y="-10" fill="#FFF" font-family="sans-serif" font-size="10" pointer-events="none" text-anchor="middle">Distributed</text><text y="0" fill="#FFF" font-family="sans-serif" font-size="10" pointer-events="none" text-anchor="middle">database</text><text y="10" fill="#FFF" font-family="sans-serif" font-size="10" pointer-events="none" text-anchor="middle">management</text><text y="20" fill="#FFF" font-family="sans-serif" font-size="10" pointer-events="none" text-anchor="middle">system</text></g><g class="node" transform="translate(109.18347213632414,191.70575364436235)"><circle cx="0" cy="0" r="40" fill="#569480" stroke="#447666" stroke-width="2" class="outline"/><text y="5" fill="#FFF" font-family="sans-serif" font-size="10" pointer-events="none" text-anchor="middle">free software</text></g></g></svg>