<svg xmlns="http://www.w3.org/2000/svg" width="836.617" height="507.158" viewBox="-493.858 -270.837 836.617 507.158"><title>Neo4j Graph Visualization</title><desc>Created using Neo4j (http://www.neo4j.com/)</desc><g class="layer relationships"><g class="relationship"><path fill="#A5ABB6" stroke="none" d="M 40 0.5 L 51.92597004344495 0.5 L 51.92597004344495 -0.5 L 40 -0.5 Z M 109.78925129344495 0.5 L 121.7152213368899 0.5 L 121.7152213368899 3.5 L 128.7152213368899 0 L 121.7152213368899 -3.5 L 121.7152213368899 -0.5 L 109.78925129344495 -0.5 Z" class="outline" transform="translate(196.83505974471683 -190.53452583040917) rotate(475.39278587076257)"/><text x="80.858" y="3" fill="#000" font-family="sans-serif" font-size="8" pointer-events="none" text-anchor="middle" transform="translate(196.83505974471683 -190.53452583040917) rotate(475.39278587076257) rotate(180 80.85761066844495 0)">SUB_CAT_OF</text></g><g class="relationship"><path fill="#A5ABB6" stroke="none" d="M 40 0.5 L 52.14970372278151 0.5 L 52.14970372278151 -0.5 L 40 -0.5 Z M 110.01298497278151 0.5 L 122.16268869556302 0.5 L 122.16268869556302 3.5 L 129.16268869556302 0 L 122.16268869556302 -3.5 L 122.16268869556302 -0.5 L 110.01298497278151 -0.5 Z" class="outline" transform="translate(-280.85854988858034 -137.10719754577696) rotate(369.51746708736704)"/><text x="81.081" y="3" fill="#000" font-family="sans-serif" font-size="8" pointer-events="none" text-anchor="middle" transform="translate(-280.85854988858034 -137.10719754577696) rotate(369.51746708736704)">SUB_CAT_OF</text></g><g class="relationship"><path fill="#A5ABB6" stroke="none" d="M 40 0.5 L 86.84282855666292 0.5 L 86.84282855666292 -0.5 L 40 -0.5 Z M 144.70610980666294 0.5 L 191.54893836332585 0.5 L 191.54893836332585 3.5 L 198.54893836332585 0 L 191.54893836332585 -3.5 L 191.54893836332585 -0.5 L 144.70610980666294 -0.5 Z" class="outline" transform="translate(-8.366780272440636 132.98537796298632) rotate(215.91357313876762)"/><text x="115.774" y="3" fill="#000" font-family="sans-serif" font-size="8" pointer-events="none" text-anchor="middle" transform="translate(-8.366780272440636 132.98537796298632) rotate(215.91357313876762) rotate(180 115.77446918166292 0)">SUB_CAT_OF</text></g><g class="relationship"><path fill="#A5ABB6" stroke="none" d="M 40 0.5 L 41.95344783506437 0.5 L 41.95344783506437 -0.5 L 40 -0.5 Z M 87.96516658506437 0.5 L 89.91861442012873 0.5 L 89.91861442012873 3.5 L 96.91861442012873 0 L 89.91861442012873 -3.5 L 89.91861442012873 -0.5 L 87.96516658506437 -0.5 Z" class="outline" transform="translate(-28.253994353865124 -215.86110273351855) rotate(488.7874499266595)"/><text x="64.959" y="3" fill="#000" font-family="sans-serif" font-size="8" pointer-events="none" text-anchor="middle" transform="translate(-28.253994353865124 -215.86110273351855) rotate(488.7874499266595) rotate(180 64.95930721006437 0)">SUB_CA…</text></g><g class="relationship"><path fill="#A5ABB6" stroke="none" d="M 40 0.5 L 110.83863577106277 0.5 L 110.83863577106277 -0.5 L 40 -0.5 Z M 168.70191702106277 0.5 L 239.54055279212554 0.5 L 239.54055279212554 3.5 L 246.54055279212554 0 L 239.54055279212554 -3.5 L 239.54055279212554 -0.5 L 168.70191702106277 -0.5 Z" class="outline" transform="translate(74.44663103153866 70.01105390595075) rotate(195.57789496307214)"/><text x="139.77" y="3" fill="#000" font-family="sans-serif" font-size="8" pointer-events="none" text-anchor="middle" transform="translate(74.44663103153866 70.01105390595075) rotate(195.57789496307214) rotate(180 139.77027639606277 0)">SUB_CAT_OF</text></g><g class="relationship"><path fill="#A5ABB6" stroke="none" d="M 40 0.5 L 40.638045077461115 0.5 L 40.638045077461115 -0.5 L 40 -0.5 Z M 90.94273257746111 0.5 L 91.58077765492223 0.5 L 91.58077765492223 3.5 L 98.58077765492223 0 L 91.58077765492223 -3.5 L 91.58077765492223 -0.5 L 90.94273257746111 -0.5 Z" class="outline" transform="translate(-114.02434507280978 -109.13643870370251) rotate(395.65487587366056)"/><text x="65.79" y="3" fill="#000" font-family="sans-serif" font-size="8" pointer-events="none" text-anchor="middle" transform="translate(-114.02434507280978 -109.13643870370251) rotate(395.65487587366056)">SUB_CAT…</text></g><g class="relationship"><path fill="#A5ABB6" stroke="none" d="M 40 0.5 L 43.18622879123227 0.5 L 43.18622879123227 -0.5 L 40 -0.5 Z M 101.04951004123227 0.5 L 104.23573883246453 0.5 L 104.23573883246453 3.5 L 111.23573883246453 0 L 104.23573883246453 -3.5 L 104.23573883246453 -0.5 L 101.04951004123227 -0.5 Z" class="outline" transform="translate(-208.99131428704024 -226.83743045171127) rotate(411.10169783467126)"/><text x="72.118" y="3" fill="#000" font-family="sans-serif" font-size="8" pointer-events="none" text-anchor="middle" transform="translate(-208.99131428704024 -226.83743045171127) rotate(411.10169783467126)">SUB_CAT_OF</text></g><g class="relationship"><path fill="#A5ABB6" stroke="none" d="M 40 0.5 L 41.98987845025661 0.5 L 41.98987845025661 -0.5 L 40 -0.5 Z M 88.00159720025661 0.5 L 89.99147565051322 0.5 L 89.99147565051322 3.5 L 96.99147565051322 0 L 89.99147565051322 -3.5 L 89.99147565051322 -0.5 L 88.00159720025661 -0.5 Z" class="outline" transform="translate(-334.3594509957182 -40.601208003171806) rotate(374.22471747081767)"/><text x="64.996" y="3" fill="#000" font-family="sans-serif" font-size="8" pointer-events="none" text-anchor="middle" transform="translate(-334.3594509957182 -40.601208003171806) rotate(374.22471747081767)">SUB_CA…</text></g><g class="relationship"><path fill="#A5ABB6" stroke="none" d="M 40 0.5 L 68.21309688427802 0.5 L 68.21309688427802 -0.5 L 40 -0.5 Z M 126.07637813427802 0.5 L 154.28947501855603 0.5 L 154.28947501855603 3.5 L 161.28947501855603 0 L 154.28947501855603 -3.5 L 154.28947501855603 -0.5 L 126.07637813427802 -0.5 Z" class="outline" transform="translate(-201.56821155656866 -6.938897786556851) rotate(353.89176586577116)"/><text x="97.145" y="3" fill="#000" font-family="sans-serif" font-size="8" pointer-events="none" text-anchor="middle" transform="translate(-201.56821155656866 -6.938897786556851) rotate(353.89176586577116)">SUB_CAT_OF</text></g><g class="relationship"><path fill="#A5ABB6" stroke="none" d="M 40 0.5 L 47.820027254612185 0.5 L 47.820027254612185 -0.5 L 40 -0.5 Z M 105.68330850461219 0.5 L 113.50333575922437 0.5 L 113.50333575922437 3.5 L 120.50333575922437 0 L 113.50333575922437 -3.5 L 113.50333575922437 -0.5 L 105.68330850461219 -0.5 Z" class="outline" transform="translate(190.09382018118987 108.36301967385415) rotate(245.87299217710768)"/><text x="76.752" y="3" fill="#000" font-family="sans-serif" font-size="8" pointer-events="none" text-anchor="middle" transform="translate(190.09382018118987 108.36301967385415) rotate(245.87299217710768) rotate(180 76.75166787961219 0)">SUB_CAT_OF</text></g><g class="relationship"><path fill="#A5ABB6" stroke="none" d="M 40 0.5 L 42.19364176982899 0.5 L 42.19364176982899 -0.5 L 40 -0.5 Z M 77.09207926982899 0.5 L 79.28572103965799 0.5 L 79.28572103965799 3.5 L 86.28572103965799 0 L 79.28572103965799 -3.5 L 79.28572103965799 -0.5 L 77.09207926982899 -0.5 Z" class="outline" transform="translate(124.48636388551537 -38.11900129885592) rotate(535.5667891388209)"/><text x="59.643" y="3" fill="#000" font-family="sans-serif" font-size="8" pointer-events="none" text-anchor="middle" transform="translate(124.48636388551537 -38.11900129885592) rotate(535.5667891388209) rotate(180 59.64286051982899 0)">SUB_…</text></g><g class="relationship"><path fill="#A5ABB6" stroke="none" d="M 40 0.5 L 69.54178384878593 0.5 L 69.54178384878593 -0.5 L 40 -0.5 Z M 127.40506509878593 0.5 L 156.94684894757185 0.5 L 156.94684894757185 3.5 L 163.94684894757185 0 L 156.94684894757185 -3.5 L 156.94684894757185 -0.5 L 127.40506509878593 -0.5 Z" class="outline" transform="translate(-303.8793572366995 169.48884001354853) rotate(300.10961589063277)"/><text x="98.473" y="3" fill="#000" font-family="sans-serif" font-size="8" pointer-events="none" text-anchor="middle" transform="translate(-303.8793572366995 169.48884001354853) rotate(300.10961589063277)">SUB_CAT_OF</text></g><g class="relationship"><path fill="#A5ABB6" stroke="none" d="M 40 0.5 L 77.63432874422377 0.5 L 77.63432874422377 -0.5 L 40 -0.5 Z M 135.49760999422375 0.5 L 173.13193873844753 0.5 L 173.13193873844753 3.5 L 180.13193873844753 0 L 173.13193873844753 -3.5 L 173.13193873844753 -0.5 L 135.49760999422375 -0.5 Z" class="outline" transform="translate(-96.50430329577628 186.50268417997748) rotate(241.492291811565)"/><text x="106.566" y="3" fill="#000" font-family="sans-serif" font-size="8" pointer-events="none" text-anchor="middle" transform="translate(-96.50430329577628 186.50268417997748) rotate(241.492291811565) rotate(180 106.56596936922377 0)">SUB_CAT_OF</text></g><g class="relationship"><path fill="#A5ABB6" stroke="none" d="M 40 0.5 L 73.766906599808 0.5 L 73.766906599808 -0.5 L 40 -0.5 Z M 131.630187849808 0.5 L 165.397094449616 0.5 L 165.397094449616 3.5 L 172.397094449616 0 L 165.397094449616 -3.5 L 165.397094449616 -0.5 L 131.630187849808 -0.5 Z" class="outline" transform="translate(-392.9744586477757 85.12724313994715) rotate(334.3125097139408)"/><text x="102.699" y="3" fill="#000" font-family="sans-serif" font-size="8" pointer-events="none" text-anchor="middle" transform="translate(-392.9744586477757 85.12724313994715) rotate(334.3125097139408)">SUB_CAT_OF</text></g><g class="relationship"><path fill="#A5ABB6" stroke="none" d="M 40 0.5 L 61.19055150554854 0.5 L 61.19055150554854 -0.5 L 40 -0.5 Z M 119.05383275554854 0.5 L 140.24438426109708 0.5 L 140.24438426109708 3.5 L 147.24438426109708 0 L 140.24438426109708 -3.5 L 140.24438426109708 -0.5 L 119.05383275554854 -0.5 Z" class="outline" transform="translate(298.75917811752726 30.360525984647268) rotate(201.4520674721917)"/><text x="90.122" y="3" fill="#000" font-family="sans-serif" font-size="8" pointer-events="none" text-anchor="middle" transform="translate(298.75917811752726 30.360525984647268) rotate(201.4520674721917) rotate(180 90.12219213054854 0)">SUB_CAT_OF</text></g><g class="relationship"><path fill="#A5ABB6" stroke="none" d="M 40 0.5 L 53.10457534856184 0.5 L 53.10457534856184 -0.5 L 40 -0.5 Z M 110.96785659856184 0.5 L 124.07243194712368 0.5 L 124.07243194712368 3.5 L 131.07243194712368 0 L 124.07243194712368 -3.5 L 124.07243194712368 -0.5 L 110.96785659856184 -0.5 Z" class="outline" transform="translate(290.54393633572573 -79.23663260522375) rotate(526.0926729883299)"/><text x="82.036" y="3" fill="#000" font-family="sans-serif" font-size="8" pointer-events="none" text-anchor="middle" transform="translate(290.54393633572573 -79.23663260522375) rotate(526.0926729883299) rotate(180 82.03621597356184 0)">SUB_CAT_OF</text></g><g class="relationship"><path fill="#A5ABB6" stroke="none" d="M 40 0.5 L 59.75637940062708 0.5 L 59.75637940062708 -0.5 L 40 -0.5 Z M 117.61966065062708 0.5 L 137.37604005125417 0.5 L 137.37604005125417 3.5 L 144.37604005125417 0 L 137.37604005125417 -3.5 L 137.37604005125417 -0.5 L 117.61966065062708 -0.5 Z" class="outline" transform="translate(68.56172558452167 -134.7655422170455) rotate(532.0097536074131)"/><text x="88.688" y="3" fill="#000" font-family="sans-serif" font-size="8" pointer-events="none" text-anchor="middle" transform="translate(68.56172558452167 -134.7655422170455) rotate(532.0097536074131) rotate(180 88.68802002562708 0)">SUB_CAT_OF</text></g><g class="relationship"><path fill="#A5ABB6" stroke="none" d="M 40 0.5 L 67.21051430960203 0.5 L 67.21051430960203 -0.5 L 40 -0.5 Z M 125.07379555960203 0.5 L 152.28430986920407 0.5 L 152.28430986920407 3.5 L 159.28430986920407 0 L 152.28430986920407 -3.5 L 152.28430986920407 -0.5 L 125.07379555960203 -0.5 Z" class="outline" transform="translate(-198.42067297634216 192.32055408695135) rotate(269.09502070012695)"/><text x="96.142" y="3" fill="#000" font-family="sans-serif" font-size="8" pointer-events="none" text-anchor="middle" transform="translate(-198.42067297634216 192.32055408695135) rotate(269.09502070012695) rotate(180 96.14215493460203 0)">SUB_CAT_OF</text></g></g><g class="layer nodes"><g class="node" transform="translate(-392.9744586477757,85.12724313994715)"><circle cx="0" cy="0" r="40" fill="#FFC454" stroke="#d7a013" stroke-width="2" class="outline"/><text y="5" fill="#2A2C34" font-family="sans-serif" font-size="10" pointer-events="none" text-anchor="middle">Python</text></g><g class="node" transform="translate(-114.02434507280978,-109.13643870370251)"><circle cx="0" cy="0" r="40" fill="#FFC454" stroke="#d7a013" stroke-width="2" class="outline"/><text y="5" fill="#2A2C34" font-family="sans-serif" font-size="10" pointer-events="none" text-anchor="middle">MEAN Stack</text></g><g class="node" transform="translate(-201.56821155656866,-6.938897786556851)"><circle cx="0" cy="0" r="40" fill="#FFC454" stroke="#d7a013" stroke-width="2" class="outline"/><text y="5" fill="#2A2C34" font-family="sans-serif" font-size="10" pointer-events="none" text-anchor="middle">LAMP Stack</text></g><g class="node" transform="translate(290.54393633572573,-79.23663260522375)"><circle cx="0" cy="0" r="40" fill="#FFC454" stroke="#d7a013" stroke-width="2" class="outline"/><text y="5" fill="#2A2C34" font-family="sans-serif" font-size="10" pointer-events="none" text-anchor="middle">GraphQL</text></g><g class="node" transform="translate(196.83505974471683,-190.53452583040917)"><circle cx="0" cy="0" r="40" fill="#FFC454" stroke="#d7a013" stroke-width="2" class="outline"/><text y="5" fill="#2A2C34" font-family="sans-serif" font-size="10" pointer-events="none" text-anchor="middle">React</text></g><g class="node" transform="translate(-1.4215248505124514,-28.357500771664938)"><circle cx="0" cy="0" r="40" fill="#FFC454" stroke="#d7a013" stroke-width="2" class="outline"/><text y="5" fill="#2A2C34" font-family="sans-serif" font-size="10" pointer-events="none" text-anchor="middle">Software Stack</text></g><g class="node" transform="translate(-303.8793572366995,169.48884001354853)"><circle cx="0" cy="0" r="40" fill="#FFC454" stroke="#d7a013" stroke-width="2" class="outline"/><text y="5" fill="#2A2C34" font-family="sans-serif" font-size="10" pointer-events="none" text-anchor="middle">Perl</text></g><g class="node" transform="translate(-96.50430329577628,186.50268417997748)"><circle cx="0" cy="0" r="40" fill="#FFC454" stroke="#d7a013" stroke-width="2" class="outline"/><text y="5" fill="#2A2C34" font-family="sans-serif" font-size="10" pointer-events="none" text-anchor="middle">PHP</text></g><g class="node" transform="translate(-208.99131428704024,-226.83743045171127)"><circle cx="0" cy="0" r="40" fill="#FFC454" stroke="#d7a013" stroke-width="2" class="outline"/><text y="5" fill="#2A2C34" font-family="sans-serif" font-size="10" pointer-events="none" text-anchor="middle">AngularJS</text></g><g class="node" transform="translate(-198.42067297634216,192.32055408695135)"><circle cx="0" cy="0" r="40" fill="#FFC454" stroke="#d7a013" stroke-width="2" class="outline"/><text y="0" fill="#2A2C34" font-family="sans-serif" font-size="10" pointer-events="none" text-anchor="middle">Apache HTTP</text><text y="10" fill="#2A2C34" font-family="sans-serif" font-size="10" pointer-events="none" text-anchor="middle">Server</text></g><g class="node" transform="translate(74.44663103153866,70.01105390595075)"><circle cx="0" cy="0" r="40" fill="#FFC454" stroke="#d7a013" stroke-width="2" class="outline"/><text y="5" fill="#2A2C34" font-family="sans-serif" font-size="10" pointer-events="none" text-anchor="middle">Linux</text></g><g class="node" transform="translate(-334.3594509957182,-40.601208003171806)"><circle cx="0" cy="0" r="40" fill="#FFC454" stroke="#d7a013" stroke-width="2" class="outline"/><text y="5" fill="#2A2C34" font-family="sans-serif" font-size="10" pointer-events="none" text-anchor="middle">MySQL</text></g><g class="node" transform="translate(298.75917811752726,30.360525984647268)"><circle cx="0" cy="0" r="40" fill="#FFC454" stroke="#d7a013" stroke-width="2" class="outline"/><text y="5" fill="#2A2C34" font-family="sans-serif" font-size="10" pointer-events="none" text-anchor="middle">Neo4j</text></g><g class="node" transform="translate(190.09382018118987,108.36301967385415)"><circle cx="0" cy="0" r="40" fill="#FFC454" stroke="#d7a013" stroke-width="2" class="outline"/><text y="0" fill="#2A2C34" font-family="sans-serif" font-size="10" pointer-events="none" text-anchor="middle">Apollo (Data</text><text y="10" fill="#2A2C34" font-family="sans-serif" font-size="10" pointer-events="none" text-anchor="middle">Graph Platform)</text></g><g class="node" transform="translate(68.56172558452167,-134.7655422170455)"><circle cx="0" cy="0" r="40" fill="#FFC454" stroke="#d7a013" stroke-width="2" class="outline"/><text y="5" fill="#2A2C34" font-family="sans-serif" font-size="10" pointer-events="none" text-anchor="middle">Node.js</text></g><g class="node" transform="translate(124.48636388551537,-38.11900129885592)"><circle cx="0" cy="0" r="40" fill="#FFC454" stroke="#d7a013" stroke-width="2" class="outline"/><text y="5" fill="#2A2C34" font-family="sans-serif" font-size="10" pointer-events="none" text-anchor="middle">GRAND Stack</text></g><g class="node" transform="translate(-449.8575389913402,-31.404529862969596)"><circle cx="0" cy="0" r="40" fill="#569480" stroke="#447666" stroke-width="2" class="outline"/><text y="-25" fill="#FFF" font-family="sans-serif" font-size="10" pointer-events="none" text-anchor="middle">This</text><text y="-15" fill="#FFF" font-family="sans-serif" font-size="10" pointer-events="none" text-anchor="middle">ontology</text><text y="-5" fill="#FFF" font-family="sans-serif" font-size="10" pointer-events="none" text-anchor="middle">describes some</text><text y="5" fill="#FFF" font-family="sans-serif" font-size="10" pointer-events="none" text-anchor="middle">of the most</text><text y="15" fill="#FFF" font-family="sans-serif" font-size="10" pointer-events="none" text-anchor="middle">popular</text><text y="25" fill="#FFF" font-family="sans-serif" font-size="10" pointer-events="none" text-anchor="middle">Software</text><text y="35" fill="#FFF" font-family="sans-serif" font-size="10" pointer-events="none" text-anchor="middle">stacks.</text></g><g class="node" transform="translate(-28.253994353865124,-215.86110273351855)"><circle cx="0" cy="0" r="40" fill="#FFC454" stroke="#d7a013" stroke-width="2" class="outline"/><text y="5" fill="#2A2C34" font-family="sans-serif" font-size="10" pointer-events="none" text-anchor="middle">MongoDB</text></g><g class="node" transform="translate(-8.366780272440636,132.98537796298632)"><circle cx="0" cy="0" r="40" fill="#FFC454" stroke="#d7a013" stroke-width="2" class="outline"/><text y="5" fill="#2A2C34" font-family="sans-serif" font-size="10" pointer-events="none" text-anchor="middle">MariaDB</text></g><g class="node" transform="translate(-280.85854988858034,-137.10719754577696)"><circle cx="0" cy="0" r="40" fill="#FFC454" stroke="#d7a013" stroke-width="2" class="outline"/><text y="5" fill="#2A2C34" font-family="sans-serif" font-size="10" pointer-events="none" text-anchor="middle">Express.js</text></g></g></svg>