<svg xmlns="http://www.w3.org/2000/svg" width="309.131" height="300.805" viewBox="-59.806 -55.822 309.131 300.805"><title>Neo4j Graph Visualization</title><desc>Created using Neo4j (http://www.neo4j.com/)</desc><g class="layer relationships"><g class="relationship"><path fill="#A5ABB6" stroke="none" d="M 25 0.5 L 38.46274735304499 0.5 L 38.46274735304499 -0.5 L 25 -0.5 Z M 80.62680985304499 0.5 L 94.08955720608998 0.5 L 94.08955720608998 3.5 L 101.08955720608998 0 L 94.08955720608998 -3.5 L 94.08955720608998 -0.5 L 80.62680985304499 -0.5 Z" class="outline" transform="translate(141.99932693925805 209.98793926417807) rotate(247.87490883300092)"/><text x="59.545" y="3" fill="#000" font-family="sans-serif" font-size="8" pointer-events="none" text-anchor="middle" transform="translate(141.99932693925805 209.98793926417807) rotate(247.87490883300092) rotate(180 59.54477860304499 0)">PART_OF</text></g><g class="relationship"><path fill="#A5ABB6" stroke="none" d="M 25 0.5 L 38.480279863388375 0.5 L 38.480279863388375 -0.5 L 25 -0.5 Z M 80.64434236338838 0.5 L 94.12462222677675 0.5 L 94.12462222677675 3.5 L 101.12462222677675 0 L 94.12462222677675 -3.5 L 94.12462222677675 -0.5 L 80.64434236338838 -0.5 Z" class="outline" transform="translate(197.02546751650837 166.65452457915887) rotate(215.6286915914422)"/><text x="59.562" y="3" fill="#000" font-family="sans-serif" font-size="8" pointer-events="none" text-anchor="middle" transform="translate(197.02546751650837 166.65452457915887) rotate(215.6286915914422) rotate(180 59.562311113388375 0)">PART_OF</text></g><g class="relationship"><path fill="#A5ABB6" stroke="none" d="M 25 0.5 L 38.33592348005782 0.5 L 38.33592348005782 -0.5 L 25 -0.5 Z M 80.49998598005783 0.5 L 93.83590946011564 0.5 L 93.83590946011564 3.5 L 100.83590946011564 0 L 93.83590946011564 -3.5 L 93.83590946011564 -0.5 L 80.49998598005783 -0.5 Z" class="outline" transform="translate(220.32502946881232 95.48745028564909) rotate(181.0492604453405)"/><text x="59.418" y="3" fill="#000" font-family="sans-serif" font-size="8" pointer-events="none" text-anchor="middle" transform="translate(220.32502946881232 95.48745028564909) rotate(181.0492604453405) rotate(180 59.41795473005782 0)">PART_OF</text></g><g class="relationship"><path fill="#A5ABB6" stroke="none" d="M 25 0.5 L 38.613677701612815 0.5 L 38.613677701612815 -0.5 L 25 -0.5 Z M 80.77774020161281 0.5 L 94.39141790322563 0.5 L 94.39141790322563 3.5 L 101.39141790322563 0 L 94.39141790322563 -3.5 L 94.39141790322563 -0.5 L 80.77774020161281 -0.5 Z" class="outline" transform="translate(197.16018440901107 19.441866866773914) rotate(504.3074396594658)"/><text x="59.696" y="3" fill="#000" font-family="sans-serif" font-size="8" pointer-events="none" text-anchor="middle" transform="translate(197.16018440901107 19.441866866773914) rotate(504.3074396594658) rotate(180 59.695708951612815 0)">PART_OF</text></g><g class="relationship"><path fill="#A5ABB6" stroke="none" d="M 25 0.5 L 38.21834356740006 0.5 L 38.21834356740006 -0.5 L 25 -0.5 Z M 80.38240606740007 0.5 L 93.60074963480012 0.5 L 93.60074963480012 3.5 L 100.60074963480012 0 L 93.60074963480012 -3.5 L 93.60074963480012 -0.5 L 80.38240606740007 -0.5 Z" class="outline" transform="translate(131.5826278047096 -26.821797103509876) rotate(467.1671751108774)"/><text x="59.3" y="3" fill="#000" font-family="sans-serif" font-size="8" pointer-events="none" text-anchor="middle" transform="translate(131.5826278047096 -26.821797103509876) rotate(467.1671751108774) rotate(180 59.30037481740006 0)">PART_OF</text></g><g class="relationship"><path fill="#A5ABB6" stroke="none" d="M 25 0.5 L 38.20852737856707 0.5 L 38.20852737856707 -0.5 L 25 -0.5 Z M 80.37258987856707 0.5 L 93.58111725713414 0.5 L 93.58111725713414 3.5 L 100.58111725713414 0 L 93.58111725713414 -3.5 L 93.58111725713414 -0.5 L 80.37258987856707 -0.5 Z" class="outline" transform="translate(50.86759134194452 -24.570577578714627) rotate(429.66396763171144)"/><text x="59.291" y="3" fill="#000" font-family="sans-serif" font-size="8" pointer-events="none" text-anchor="middle" transform="translate(50.86759134194452 -24.570577578714627) rotate(429.66396763171144)">PART_OF</text></g><g class="relationship"><path fill="#A5ABB6" stroke="none" d="M 25 0.5 L 38.191694203529764 0.5 L 38.191694203529764 -0.5 L 25 -0.5 Z M 80.35575670352976 0.5 L 93.54745090705953 0.5 L 93.54745090705953 3.5 L 100.54745090705953 0 L 93.54745090705953 -3.5 L 93.54745090705953 -0.5 L 80.35575670352976 -0.5 Z" class="outline" transform="translate(-9.652285196443364 23.095088623757697) rotate(393.93551256293256)"/><text x="59.274" y="3" fill="#000" font-family="sans-serif" font-size="8" pointer-events="none" text-anchor="middle" transform="translate(-9.652285196443364 23.095088623757697) rotate(393.93551256293256)">PART_OF</text></g><g class="relationship"><path fill="#A5ABB6" stroke="none" d="M 25 0.5 L 38.546352971153055 0.5 L 38.546352971153055 -0.5 L 25 -0.5 Z M 80.71041547115306 0.5 L 94.25676844230611 0.5 L 94.25676844230611 3.5 L 101.25676844230611 0 L 94.25676844230611 -3.5 L 94.25676844230611 -0.5 L 80.71041547115306 -0.5 Z" class="outline" transform="translate(-1.1135028655855974 175.62630323626766) rotate(319.23332903988285)"/><text x="59.628" y="3" fill="#000" font-family="sans-serif" font-size="8" pointer-events="none" text-anchor="middle" transform="translate(-1.1135028655855974 175.62630323626766) rotate(319.23332903988285)">PART_OF</text></g><g class="relationship"><path fill="#A5ABB6" stroke="none" d="M 25 0.5 L 38.19954025990738 0.5 L 38.19954025990738 -0.5 L 25 -0.5 Z M 80.36360275990738 0.5 L 93.56314301981476 0.5 L 93.56314301981476 3.5 L 100.56314301981476 0 L 93.56314301981476 -3.5 L 93.56314301981476 -0.5 L 80.36360275990738 -0.5 Z" class="outline" transform="translate(-30.805940000507288 101.0547921077724) rotate(356.4057255326444)"/><text x="59.282" y="3" fill="#000" font-family="sans-serif" font-size="8" pointer-events="none" text-anchor="middle" transform="translate(-30.805940000507288 101.0547921077724) rotate(356.4057255326444)">PART_OF</text></g><g class="relationship"><path fill="#A5ABB6" stroke="none" d="M 25 0.5 L 38.300763827975615 0.5 L 38.300763827975615 -0.5 L 25 -0.5 Z M 80.46482632797562 0.5 L 93.76559015595123 0.5 L 93.76559015595123 3.5 L 100.76559015595123 0 L 93.76559015595123 -3.5 L 93.76559015595123 -0.5 L 80.46482632797562 -0.5 Z" class="outline" transform="translate(67.3598908700927 215.98315325416354) rotate(282.46718509022776)"/><text x="59.383" y="3" fill="#000" font-family="sans-serif" font-size="8" pointer-events="none" text-anchor="middle" transform="translate(67.3598908700927 215.98315325416354) rotate(282.46718509022776)">PART_OF</text></g></g><g class="layer nodes"><g class="node" transform="translate(94.51022007388057,93.18313985269586)"><circle cx="0" cy="0" r="25" fill="#4C8EDA" stroke="#2870c2" stroke-width="2" class="outline"/><text x="0" y="5" fill="#FFF" font-family="sans-serif" font-size="10" pointer-events="none" text-anchor="middle">Beverag…</text></g><g class="node" transform="translate(141.99932693925805,209.98793926417807)"><circle cx="0" cy="0" r="25" fill="#F79767" stroke="#f36924" stroke-width="2" class="outline"/><text x="0" y="5" fill="#FFF" font-family="sans-serif" font-size="10" pointer-events="none" text-anchor="middle">Chartreu…</text></g><g class="node" transform="translate(197.02546751650837,166.65452457915887)"><circle cx="0" cy="0" r="25" fill="#F79767" stroke="#f36924" stroke-width="2" class="outline"/><text x="0" y="5" fill="#FFF" font-family="sans-serif" font-size="10" pointer-events="none" text-anchor="middle">Chai</text></g><g class="node" transform="translate(220.32502946881232,95.48745028564909)"><circle cx="0" cy="0" r="25" fill="#F79767" stroke="#f36924" stroke-width="2" class="outline"/><text x="0" y="5" fill="#FFF" font-family="sans-serif" font-size="10" pointer-events="none" text-anchor="middle">Sasquat…</text></g><g class="node" transform="translate(197.16018440901107,19.441866866773914)"><circle cx="0" cy="0" r="25" fill="#F79767" stroke="#f36924" stroke-width="2" class="outline"/><text x="0" y="5" fill="#FFF" font-family="sans-serif" font-size="10" pointer-events="none" text-anchor="middle">Lakkalik…</text></g><g class="node" transform="translate(131.5826278047096,-26.821797103509876)"><circle cx="0" cy="0" r="25" fill="#F79767" stroke="#f36924" stroke-width="2" class="outline"/><text x="0" y="0" fill="#FFF" font-family="sans-serif" font-size="10" pointer-events="none" text-anchor="middle">Côte de</text><text x="0" y="10" fill="#FFF" font-family="sans-serif" font-size="10" pointer-events="none" text-anchor="middle">Blaye</text></g><g class="node" transform="translate(50.86759134194452,-24.570577578714627)"><circle cx="0" cy="0" r="25" fill="#F79767" stroke="#f36924" stroke-width="2" class="outline"/><text x="0" y="5" fill="#FFF" font-family="sans-serif" font-size="10" pointer-events="none" text-anchor="middle">Rhönbräu</text></g><g class="node" transform="translate(-9.652285196443364,23.095088623757697)"><circle cx="0" cy="0" r="25" fill="#F79767" stroke="#f36924" stroke-width="2" class="outline"/><text x="0" y="0" fill="#FFF" font-family="sans-serif" font-size="10" pointer-events="none" text-anchor="middle">Steeleye</text><text x="0" y="10" fill="#FFF" font-family="sans-serif" font-size="10" pointer-events="none" text-anchor="middle">Stout</text></g><g class="node" transform="translate(-1.1135028655855974,175.62630323626766)"><circle cx="0" cy="0" r="25" fill="#F79767" stroke="#f36924" stroke-width="2" class="outline"/><text x="0" y="0" fill="#FFF" font-family="sans-serif" font-size="10" pointer-events="none" text-anchor="middle">Laughing</text><text x="0" y="10" fill="#FFF" font-family="sans-serif" font-size="10" pointer-events="none" text-anchor="middle">Lumber…</text></g><g class="node" transform="translate(-30.805940000507288,101.0547921077724)"><circle cx="0" cy="0" r="25" fill="#F79767" stroke="#f36924" stroke-width="2" class="outline"/><text x="0" y="0" fill="#FFF" font-family="sans-serif" font-size="10" pointer-events="none" text-anchor="middle">Guaraná</text><text x="0" y="10" fill="#FFF" font-family="sans-serif" font-size="10" pointer-events="none" text-anchor="middle">Fantásti…</text></g><g class="node" transform="translate(67.3598908700927,215.98315325416354)"><circle cx="0" cy="0" r="25" fill="#F79767" stroke="#f36924" stroke-width="2" class="outline"/><text x="0" y="5" fill="#FFF" font-family="sans-serif" font-size="10" pointer-events="none" text-anchor="middle">Chang</text></g></g></svg>