<svg xmlns="http://www.w3.org/2000/svg" width="587.076" height="597.498" viewBox="-173.825 -198.921 587.076 597.498"><title>Neo4j Graph Visualization</title><desc>Created using Neo4j (http://www.neo4j.com/)</desc><g class="layer relationships"><g class="relationship"><path fill="#A5ABB6" stroke="none" d="M 25 0.5 L 26.517228309970832 0.5 L 26.517228309970832 -0.5 L 25 -0.5 Z M 71.64613455997083 0.5 L 73.16336286994166 0.5 L 73.16336286994166 3.5 L 80.16336286994166 0 L 73.16336286994166 -3.5 L 73.16336286994166 -0.5 L 71.64613455997083 -0.5 Z" class="outline" transform="translate(47.215142137217605 369.57711251704626) rotate(262.5337018455326)"/><text x="49.082" y="3" fill="#000" font-family="sans-serif" font-size="8" pointer-events="none" text-anchor="middle" transform="translate(47.215142137217605 369.57711251704626) rotate(262.5337018455326) rotate(180 49.08168143497083 0)">SUPPLIES</text></g><g class="relationship"><path fill="#A5ABB6" stroke="none" d="M 25 0.5 L 27.677103638029074 0.5 L 27.677103638029074 -0.5 L 25 -0.5 Z M 72.80600988802908 0.5 L 75.48311352605815 0.5 L 75.48311352605815 3.5 L 82.48311352605815 0 L 75.48311352605815 -3.5 L 75.48311352605815 -0.5 L 72.80600988802908 -0.5 Z" class="outline" transform="translate(47.215142137217605 369.57711251704626) rotate(353.7534030743575)"/><text x="50.242" y="3" fill="#000" font-family="sans-serif" font-size="8" pointer-events="none" text-anchor="middle" transform="translate(47.215142137217605 369.57711251704626) rotate(353.7534030743575)">SUPPLIES</text></g><g class="relationship"><path fill="#A5ABB6" stroke="none" d="M 25 0.5 L 29.943635049427 0.5 L 29.943635049427 -0.5 L 25 -0.5 Z M 75.072541299427 0.5 L 80.016176348854 0.5 L 80.016176348854 3.5 L 87.016176348854 0 L 80.016176348854 -3.5 L 80.016176348854 -0.5 L 75.072541299427 -0.5 Z" class="outline" transform="translate(303.2926187995304 56.97078874207202) rotate(470.15107646308206)"/><text x="52.508" y="3" fill="#000" font-family="sans-serif" font-size="8" pointer-events="none" text-anchor="middle" transform="translate(303.2926187995304 56.97078874207202) rotate(470.15107646308206) rotate(180 52.508088174427 0)">SUPPLIES</text></g><g class="relationship"><path fill="#A5ABB6" stroke="none" d="M 25 0.5 L 27.690421166650744 0.5 L 27.690421166650744 -0.5 L 25 -0.5 Z M 72.81932741665074 0.5 L 75.50974858330149 0.5 L 75.50974858330149 3.5 L 82.50974858330149 0 L 75.50974858330149 -3.5 L 75.50974858330149 -0.5 L 72.81932741665074 -0.5 Z" class="outline" transform="translate(303.2926187995304 56.97078874207202) rotate(401.1456845156355)"/><text x="50.255" y="3" fill="#000" font-family="sans-serif" font-size="8" pointer-events="none" text-anchor="middle" transform="translate(303.2926187995304 56.97078874207202) rotate(401.1456845156355)">SUPPLIES</text></g><g class="relationship"><path fill="#A5ABB6" stroke="none" d="M 25 0.5 L 28.236717182735745 0.5 L 28.236717182735745 -0.5 L 25 -0.5 Z M 73.36562343273575 0.5 L 76.60234061547149 0.5 L 76.60234061547149 3.5 L 83.60234061547149 0 L 76.60234061547149 -3.5 L 76.60234061547149 -0.5 L 73.36562343273575 -0.5 Z" class="outline" transform="translate(303.2926187995304 56.97078874207202) rotate(274.6727176856918)"/><text x="50.801" y="3" fill="#000" font-family="sans-serif" font-size="8" pointer-events="none" text-anchor="middle" transform="translate(303.2926187995304 56.97078874207202) rotate(274.6727176856918)">SUPPLIES</text></g><g class="relationship"><path fill="#A5ABB6" stroke="none" d="M 25 0.5 L 28.51088740896722 0.5 L 28.51088740896722 -0.5 L 25 -0.5 Z M 73.63979365896722 0.5 L 77.15068106793444 0.5 L 77.15068106793444 3.5 L 84.15068106793444 0 L 77.15068106793444 -3.5 L 77.15068106793444 -0.5 L 73.63979365896722 -0.5 Z" class="outline" transform="translate(303.2926187995304 56.97078874207202) rotate(182.862899036707)"/><text x="51.075" y="3" fill="#000" font-family="sans-serif" font-size="8" pointer-events="none" text-anchor="middle" transform="translate(303.2926187995304 56.97078874207202) rotate(182.862899036707) rotate(180 51.07534053396722 0)">SUPPLIES</text></g><g class="relationship"><path fill="#A5ABB6" stroke="none" d="M 25 0.5 L 27.87169898623057 0.5 L 27.87169898623057 -0.5 L 25 -0.5 Z M 73.00060523623057 0.5 L 75.87230422246114 0.5 L 75.87230422246114 3.5 L 82.87230422246114 0 L 75.87230422246114 -3.5 L 75.87230422246114 -0.5 L 73.00060523623057 -0.5 Z" class="outline" transform="translate(-14.925209876643743 -135.03531191936833) rotate(341.13132115856797)"/><text x="50.436" y="3" fill="#000" font-family="sans-serif" font-size="8" pointer-events="none" text-anchor="middle" transform="translate(-14.925209876643743 -135.03531191936833) rotate(341.13132115856797)">SUPPLIES</text></g><g class="relationship"><path fill="#A5ABB6" stroke="none" d="M 25 0.5 L 27.894745323012557 0.5 L 27.894745323012557 -0.5 L 25 -0.5 Z M 73.02365157301256 0.5 L 75.91839689602511 0.5 L 75.91839689602511 3.5 L 82.91839689602511 0 L 75.91839689602511 -3.5 L 75.91839689602511 -0.5 L 73.02365157301256 -0.5 Z" class="outline" transform="translate(-14.925209876643743 -135.03531191936833) rotate(511.5097548191523)"/><text x="50.459" y="3" fill="#000" font-family="sans-serif" font-size="8" pointer-events="none" text-anchor="middle" transform="translate(-14.925209876643743 -135.03531191936833) rotate(511.5097548191523) rotate(180 50.45919844801256 0)">SUPPLIES</text></g><g class="relationship"><path fill="#A5ABB6" stroke="none" d="M 25 0.5 L 28.51817537245544 0.5 L 28.51817537245544 -0.5 L 25 -0.5 Z M 73.64708162245543 0.5 L 77.16525699491088 0.5 L 77.16525699491088 3.5 L 84.16525699491088 0 L 77.16525699491088 -3.5 L 77.16525699491088 -0.5 L 73.64708162245543 -0.5 Z" class="outline" transform="translate(-14.925209876643743 -135.03531191936833) rotate(436.409916682601)"/><text x="51.083" y="3" fill="#000" font-family="sans-serif" font-size="8" pointer-events="none" text-anchor="middle" transform="translate(-14.925209876643743 -135.03531191936833) rotate(436.409916682601)">SUPPLIES</text></g><g class="relationship"><path fill="#A5ABB6" stroke="none" d="M 25 0.5 L 25.704679441412715 0.5 L 25.704679441412715 -0.5 L 25 -0.5 Z M 70.83358569141271 0.5 L 71.53826513282543 0.5 L 71.53826513282543 3.5 L 78.53826513282543 0 L 71.53826513282543 -3.5 L 71.53826513282543 -0.5 L 70.83358569141271 -0.5 Z" class="outline" transform="translate(-144.82460244057526 125.40784477077322) rotate(445.2865545326332)"/><text x="48.269" y="3" fill="#000" font-family="sans-serif" font-size="8" pointer-events="none" text-anchor="middle" transform="translate(-144.82460244057526 125.40784477077322) rotate(445.2865545326332)">SUPPLIES</text></g></g><g class="layer nodes"><g class="node" transform="translate(47.215142137217605,369.57711251704626)"><circle cx="0" cy="0" r="25" fill="#ECB5C9" stroke="#da7298" stroke-width="2" class="outline"/><text x="0" y="0" fill="#2A2C34" font-family="sans-serif" font-size="10" pointer-events="none" text-anchor="middle">Exotic</text><text x="0" y="10" fill="#2A2C34" font-family="sans-serif" font-size="10" pointer-events="none" text-anchor="middle">Liquids</text></g><g class="node" transform="translate(33.54989993757475,265.30538074980205)"><circle cx="0" cy="0" r="25" fill="#F79767" stroke="#f36924" stroke-width="2" class="outline"/><text x="0" y="5" fill="#FFF" font-family="sans-serif" font-size="10" pointer-events="none" text-anchor="middle">Chang</text></g><g class="node" transform="translate(154.06010720119843,357.8821078683844)"><circle cx="0" cy="0" r="25" fill="#F79767" stroke="#f36924" stroke-width="2" class="outline"/><text x="0" y="0" fill="#FFF" font-family="sans-serif" font-size="10" pointer-events="none" text-anchor="middle">Aniseed</text><text x="0" y="10" fill="#FFF" font-family="sans-serif" font-size="10" pointer-events="none" text-anchor="middle">Syrup</text></g><g class="node" transform="translate(303.2926187995304,56.97078874207202)"><circle cx="0" cy="0" r="25" fill="#ECB5C9" stroke="#da7298" stroke-width="2" class="outline"/><text x="0" y="-10" fill="#2A2C34" font-family="sans-serif" font-size="10" pointer-events="none" text-anchor="middle">New</text><text x="0" y="0" fill="#2A2C34" font-family="sans-serif" font-size="10" pointer-events="none" text-anchor="middle">Orleans</text><text x="0" y="10" fill="#2A2C34" font-family="sans-serif" font-size="10" pointer-events="none" text-anchor="middle">Cajun</text><text x="0" y="20" fill="#2A2C34" font-family="sans-serif" font-size="10" pointer-events="none" text-anchor="middle">Deli…</text></g><g class="node" transform="translate(264.70341393126637,162.13017744062194)"><circle cx="0" cy="0" r="25" fill="#F79767" stroke="#f36924" stroke-width="2" class="outline"/><text x="0" y="0" fill="#FFF" font-family="sans-serif" font-size="10" pointer-events="none" text-anchor="middle">Louisiana</text><text x="0" y="10" fill="#FFF" font-family="sans-serif" font-size="10" pointer-events="none" text-anchor="middle">Hot Spi…</text></g><g class="node" transform="translate(384.2516521272879,127.70961091971179)"><circle cx="0" cy="0" r="25" fill="#F79767" stroke="#f36924" stroke-width="2" class="outline"/><text x="0" y="-10" fill="#FFF" font-family="sans-serif" font-size="10" pointer-events="none" text-anchor="middle">Chef</text><text x="0" y="0" fill="#FFF" font-family="sans-serif" font-size="10" pointer-events="none" text-anchor="middle">Anton&apos;s</text><text x="0" y="10" fill="#FFF" font-family="sans-serif" font-size="10" pointer-events="none" text-anchor="middle">Cajun</text><text x="0" y="20" fill="#FFF" font-family="sans-serif" font-size="10" pointer-events="none" text-anchor="middle">Sea…</text></g><g class="node" transform="translate(312.13979274127416,-51.270589207413735)"><circle cx="0" cy="0" r="25" fill="#F79767" stroke="#f36924" stroke-width="2" class="outline"/><text x="0" y="0" fill="#FFF" font-family="sans-serif" font-size="10" pointer-events="none" text-anchor="middle">Louisiana</text><text x="0" y="10" fill="#FFF" font-family="sans-serif" font-size="10" pointer-events="none" text-anchor="middle">Fiery Hot</text></g><g class="node" transform="translate(194.27816777460083,51.51912428732244)"><circle cx="0" cy="0" r="25" fill="#F79767" stroke="#f36924" stroke-width="2" class="outline"/><text x="0" y="-10" fill="#FFF" font-family="sans-serif" font-size="10" pointer-events="none" text-anchor="middle">Chef</text><text x="0" y="0" fill="#FFF" font-family="sans-serif" font-size="10" pointer-events="none" text-anchor="middle">Anton&apos;s</text><text x="0" y="10" fill="#FFF" font-family="sans-serif" font-size="10" pointer-events="none" text-anchor="middle">Gumbo</text><text x="0" y="20" fill="#FFF" font-family="sans-serif" font-size="10" pointer-events="none" text-anchor="middle">Mix</text></g><g class="node" transform="translate(-14.925209876643743,-135.03531191936833)"><circle cx="0" cy="0" r="25" fill="#ECB5C9" stroke="#da7298" stroke-width="2" class="outline"/><text x="0" y="0" fill="#2A2C34" font-family="sans-serif" font-size="10" pointer-events="none" text-anchor="middle">Grandma</text><text x="0" y="10" fill="#2A2C34" font-family="sans-serif" font-size="10" pointer-events="none" text-anchor="middle">Kelly&apos;s</text></g><g class="node" transform="translate(87.15028366814994,-169.92123509548605)"><circle cx="0" cy="0" r="25" fill="#F79767" stroke="#f36924" stroke-width="2" class="outline"/><text x="0" y="5" fill="#FFF" font-family="sans-serif" font-size="10" pointer-events="none" text-anchor="middle">Northwo…</text></g><g class="node" transform="translate(-109.77450954548115,-83.55725114646152)"><circle cx="0" cy="0" r="25" fill="#F79767" stroke="#f36924" stroke-width="2" class="outline"/><text x="0" y="5" fill="#FFF" font-family="sans-serif" font-size="10" pointer-events="none" text-anchor="middle">Grandm…</text></g><g class="node" transform="translate(10.725774532691092,-28.926498272258883)"><circle cx="0" cy="0" r="25" fill="#F79767" stroke="#f36924" stroke-width="2" class="outline"/><text x="0" y="-10" fill="#FFF" font-family="sans-serif" font-size="10" pointer-events="none" text-anchor="middle">Uncle</text><text x="0" y="0" fill="#FFF" font-family="sans-serif" font-size="10" pointer-events="none" text-anchor="middle">Bob&apos;s</text><text x="0" y="10" fill="#FFF" font-family="sans-serif" font-size="10" pointer-events="none" text-anchor="middle">Organic</text><text x="0" y="20" fill="#FFF" font-family="sans-serif" font-size="10" pointer-events="none" text-anchor="middle">Dried</text></g><g class="node" transform="translate(-144.82460244057526,125.40784477077322)"><circle cx="0" cy="0" r="25" fill="#ECB5C9" stroke="#da7298" stroke-width="2" class="outline"/><text x="0" y="0" fill="#2A2C34" font-family="sans-serif" font-size="10" pointer-events="none" text-anchor="middle">Tokyo</text><text x="0" y="10" fill="#2A2C34" font-family="sans-serif" font-size="10" pointer-events="none" text-anchor="middle">Traders</text></g><g class="node" transform="translate(-136.3166162610085,228.59595706033667)"><circle cx="0" cy="0" r="25" fill="#F79767" stroke="#f36924" stroke-width="2" class="outline"/><text x="0" y="0" fill="#FFF" font-family="sans-serif" font-size="10" pointer-events="none" text-anchor="middle">Mishi</text><text x="0" y="10" fill="#FFF" font-family="sans-serif" font-size="10" pointer-events="none" text-anchor="middle">Kobe Ni…</text></g></g></svg>