<svg xmlns="http://www.w3.org/2000/svg" width="480.997" height="299.769" viewBox="-185.683 -58.638 480.997 299.769"><title>Neo4j Graph Visualization</title><desc>Created using Neo4j (http://www.neo4j.com/)</desc><g class="layer relationships"><g class="relationship"><path fill="#A5ABB6" stroke="none" d="M 25 0.5 L 42.240292187142856 0.5 L 42.240292187142856 -0.5 L 25 -0.5 Z M 102.18951093714286 0.5 L 119.42980312428571 0.5 L 119.42980312428571 3.5 L 126.42980312428571 0 L 119.42980312428571 -3.5 L 119.42980312428571 -0.5 L 102.18951093714286 -0.5 Z" class="outline" transform="translate(196.5615666475236 212.1312096608973) rotate(232.36999699389315)"/><text x="72.215" y="3" fill="#000" font-family="sans-serif" font-size="8" pointer-events="none" text-anchor="middle" transform="translate(196.5615666475236 212.1312096608973) rotate(232.36999699389315) rotate(180 72.21490156214286 0)">REPORTS_TO</text></g><g class="relationship"><path fill="#A5ABB6" stroke="none" d="M 25 0.5 L 47.8469356861475 0.5 L 47.8469356861475 -0.5 L 25 -0.5 Z M 107.7961544361475 0.5 L 130.643090122295 0.5 L 130.643090122295 3.5 L 137.643090122295 0 L 130.643090122295 -3.5 L 130.643090122295 -0.5 L 107.7961544361475 -0.5 Z" class="outline" transform="translate(266.31485695434196 104.06102318452066) rotate(184.18092337841392)"/><text x="77.822" y="3" fill="#000" font-family="sans-serif" font-size="8" pointer-events="none" text-anchor="middle" transform="translate(266.31485695434196 104.06102318452066) rotate(184.18092337841392) rotate(180 77.8215450611475 0)">REPORTS_TO</text></g><g class="relationship"><path fill="#A5ABB6" stroke="none" d="M 25 0.5 L 38.3696716182605 0.5 L 38.3696716182605 -0.5 L 25 -0.5 Z M 98.3188903682605 0.5 L 111.688561986521 0.5 L 111.688561986521 3.5 L 118.688561986521 0 L 111.688561986521 -3.5 L 111.688561986521 -0.5 L 98.3188903682605 -0.5 Z" class="outline" transform="translate(180.27008888589194 -29.63761763012013) rotate(482.01042029540423)"/><text x="68.344" y="3" fill="#000" font-family="sans-serif" font-size="8" pointer-events="none" text-anchor="middle" transform="translate(180.27008888589194 -29.63761763012013) rotate(482.01042029540423) rotate(180 68.3442809932605 0)">REPORTS_TO</text></g><g class="relationship"><path fill="#A5ABB6" stroke="none" d="M 25 0.5 L 28.280828478458233 0.5 L 28.280828478458233 -0.5 L 25 -0.5 Z M 88.23004722845823 0.5 L 91.51087570691647 0.5 L 91.51087570691647 3.5 L 98.51087570691647 0 L 91.51087570691647 -3.5 L 91.51087570691647 -0.5 L 88.23004722845823 -0.5 Z" class="outline" transform="translate(-10.500159448304919 46.15242118133199) rotate(381.89143816846456)"/><text x="58.255" y="3" fill="#000" font-family="sans-serif" font-size="8" pointer-events="none" text-anchor="middle" transform="translate(-10.500159448304919 46.15242118133199) rotate(381.89143816846456)">REPORTS_TO</text></g><g class="relationship"><path fill="#A5ABB6" stroke="none" d="M 25 0.5 L 36.300117416613375 0.5 L 36.300117416613375 -0.5 L 25 -0.5 Z M 96.24933616661338 0.5 L 107.54945358322675 0.5 L 107.54945358322675 3.5 L 114.54945358322675 0 L 107.54945358322675 -3.5 L 107.54945358322675 -0.5 L 96.24933616661338 -0.5 Z" class="outline" transform="translate(13.56871036443168 198.397996184497) rotate(310.4491354160023)"/><text x="66.275" y="3" fill="#000" font-family="sans-serif" font-size="8" pointer-events="none" text-anchor="middle" transform="translate(13.56871036443168 198.397996184497) rotate(310.4491354160023)">REPORTS_TO</text></g><g class="relationship"><path fill="#A5ABB6" stroke="none" d="M 25 0.5 L 42.12538064745111 0.5 L 42.12538064745111 -0.5 L 25 -0.5 Z M 102.07459939745111 0.5 L 119.19998004490222 0.5 L 119.19998004490222 3.5 L 126.19998004490222 0 L 119.19998004490222 -3.5 L 119.19998004490222 -0.5 L 102.07459939745111 -0.5 Z" class="outline" transform="translate(-156.68257261086745 7.524244321056894) rotate(374.8018748153402)"/><text x="72.1" y="3" fill="#000" font-family="sans-serif" font-size="8" pointer-events="none" text-anchor="middle" transform="translate(-156.68257261086745 7.524244321056894) rotate(374.8018748153402)">REPORTS_TO</text></g></g><g class="layer nodes"><g class="node" transform="translate(196.5615666475236,212.1312096608973)"><circle cx="0" cy="0" r="25" fill="#8DCC93" stroke="#5db665" stroke-width="2" class="outline"/><text x="0" y="0" fill="#2A2C34" font-family="sans-serif" font-size="10" pointer-events="none" text-anchor="middle">Sales</text><text x="0" y="10" fill="#2A2C34" font-family="sans-serif" font-size="10" pointer-events="none" text-anchor="middle">Repres…</text></g><g class="node" transform="translate(104.10459155128744,92.20334371509676)"><circle cx="0" cy="0" r="25" fill="#8DCC93" stroke="#5db665" stroke-width="2" class="outline"/><text x="0" y="-5" fill="#2A2C34" font-family="sans-serif" font-size="10" pointer-events="none" text-anchor="middle">Vice</text><text x="0" y="5" fill="#2A2C34" font-family="sans-serif" font-size="10" pointer-events="none" text-anchor="middle">President,</text><text x="0" y="15" fill="#2A2C34" font-family="sans-serif" font-size="10" pointer-events="none" text-anchor="middle">Sales</text></g><g class="node" transform="translate(266.31485695434196,104.06102318452066)"><circle cx="0" cy="0" r="25" fill="#8DCC93" stroke="#5db665" stroke-width="2" class="outline"/><text x="0" y="0" fill="#2A2C34" font-family="sans-serif" font-size="10" pointer-events="none" text-anchor="middle">Sales</text><text x="0" y="10" fill="#2A2C34" font-family="sans-serif" font-size="10" pointer-events="none" text-anchor="middle">Repres…</text></g><g class="node" transform="translate(180.27008888589194,-29.63761763012013)"><circle cx="0" cy="0" r="25" fill="#8DCC93" stroke="#5db665" stroke-width="2" class="outline"/><text x="0" y="0" fill="#2A2C34" font-family="sans-serif" font-size="10" pointer-events="none" text-anchor="middle">Sales</text><text x="0" y="10" fill="#2A2C34" font-family="sans-serif" font-size="10" pointer-events="none" text-anchor="middle">Repres…</text></g><g class="node" transform="translate(-10.500159448304919,46.15242118133199)"><circle cx="0" cy="0" r="25" fill="#8DCC93" stroke="#5db665" stroke-width="2" class="outline"/><text x="0" y="0" fill="#2A2C34" font-family="sans-serif" font-size="10" pointer-events="none" text-anchor="middle">Sales</text><text x="0" y="10" fill="#2A2C34" font-family="sans-serif" font-size="10" pointer-events="none" text-anchor="middle">Manager</text></g><g class="node" transform="translate(13.56871036443168,198.397996184497)"><circle cx="0" cy="0" r="25" fill="#8DCC93" stroke="#5db665" stroke-width="2" class="outline"/><text x="0" y="-5" fill="#2A2C34" font-family="sans-serif" font-size="10" pointer-events="none" text-anchor="middle">Inside</text><text x="0" y="5" fill="#2A2C34" font-family="sans-serif" font-size="10" pointer-events="none" text-anchor="middle">Sales</text><text x="0" y="15" fill="#2A2C34" font-family="sans-serif" font-size="10" pointer-events="none" text-anchor="middle">Coordi…</text></g><g class="node" transform="translate(-156.68257261086745,7.524244321056894)"><circle cx="0" cy="0" r="25" fill="#8DCC93" stroke="#5db665" stroke-width="2" class="outline"/><text x="0" y="0" fill="#2A2C34" font-family="sans-serif" font-size="10" pointer-events="none" text-anchor="middle">Sales</text><text x="0" y="10" fill="#2A2C34" font-family="sans-serif" font-size="10" pointer-events="none" text-anchor="middle">Repres…</text></g></g></svg>