<svg xmlns="http://www.w3.org/2000/svg" width="308.48" height="303.579" viewBox="-51.592 -57.296 308.48 303.579"><title>Neo4j Graph Visualization</title><desc>Created using Neo4j (http://www.neo4j.com/)</desc><g class="layer relationships"><g class="relationship"><path fill="#A5ABB6" stroke="none" d="M 25 0.5 L 36.00717258953754 0.5 L 36.00717258953754 -0.5 L 25 -0.5 Z M 82.75326633953753 0.5 L 93.76043892907508 0.5 L 93.76043892907508 3.5 L 100.76043892907508 0 L 93.76043892907508 -3.5 L 93.76043892907508 -0.5 L 82.75326633953753 -0.5 Z" class="outline" transform="translate(124.53960127837325 217.28299486249702) rotate(260.14845217709586)"/><text x="59.38" y="3" fill="#000" font-family="sans-serif" font-size="8" pointer-events="none" text-anchor="middle" transform="translate(124.53960127837325 217.28299486249702) rotate(260.14845217709586) rotate(180 59.38021946453754 0)">CONTAINS</text></g><g class="relationship"><path fill="#A5ABB6" stroke="none" d="M 25 0.5 L 36.31047603525353 0.5 L 36.31047603525353 -0.5 L 25 -0.5 Z M 83.05656978525353 0.5 L 94.36704582050706 0.5 L 94.36704582050706 3.5 L 101.36704582050706 0 L 94.36704582050706 -3.5 L 94.36704582050706 -0.5 L 83.05656978525353 -0.5 Z" class="outline" transform="translate(194.83530753306275 180.20460625063455) rotate(223.40150638835757)"/><text x="59.684" y="3" fill="#000" font-family="sans-serif" font-size="8" pointer-events="none" text-anchor="middle" transform="translate(194.83530753306275 180.20460625063455) rotate(223.40150638835757) rotate(180 59.68352291025353 0)">CONTAINS</text></g><g class="relationship"><path fill="#A5ABB6" stroke="none" d="M 25 0.5 L 35.939841297844524 0.5 L 35.939841297844524 -0.5 L 25 -0.5 Z M 82.68593504784452 0.5 L 93.62577634568905 0.5 L 93.62577634568905 3.5 L 100.62577634568905 0 L 93.62577634568905 -3.5 L 93.62577634568905 -0.5 L 82.68593504784452 -0.5 Z" class="outline" transform="translate(227.88830430702905 107.17427364454365) rotate(186.30543389376527)"/><text x="59.313" y="3" fill="#000" font-family="sans-serif" font-size="8" pointer-events="none" text-anchor="middle" transform="translate(227.88830430702905 107.17427364454365) rotate(186.30543389376527) rotate(180 59.312888172844524 0)">CONTAINS</text></g><g class="relationship"><path fill="#A5ABB6" stroke="none" d="M 25 0.5 L 35.94610813582971 0.5 L 35.94610813582971 -0.5 L 25 -0.5 Z M 82.69220188582972 0.5 L 93.63831002165942 0.5 L 93.63831002165942 3.5 L 100.63831002165942 0 L 93.63831002165942 -3.5 L 93.63831002165942 -0.5 L 82.69220188582972 -0.5 Z" class="outline" transform="translate(210.58183752448923 28.44644967794952) rotate(508.8818108164531)"/><text x="59.319" y="3" fill="#000" font-family="sans-serif" font-size="8" pointer-events="none" text-anchor="middle" transform="translate(210.58183752448923 28.44644967794952) rotate(508.8818108164531) rotate(180 59.31915501082971 0)">CONTAINS</text></g><g class="relationship"><path fill="#A5ABB6" stroke="none" d="M 25 0.5 L 35.929100979996235 0.5 L 35.929100979996235 -0.5 L 25 -0.5 Z M 82.67519472999624 0.5 L 93.60429570999247 0.5 L 93.60429570999247 3.5 L 100.60429570999247 0 L 93.60429570999247 -3.5 L 93.60429570999247 -0.5 L 82.67519472999624 -0.5 Z" class="outline" transform="translate(152.56036950450246 -22.04589329243854) rotate(473.228330356818)"/><text x="59.302" y="3" fill="#000" font-family="sans-serif" font-size="8" pointer-events="none" text-anchor="middle" transform="translate(152.56036950450246 -22.04589329243854) rotate(473.228330356818) rotate(180 59.302147854996235 0)">CONTAINS</text></g><g class="relationship"><path fill="#A5ABB6" stroke="none" d="M 25 0.5 L 35.89651051351171 0.5 L 35.89651051351171 -0.5 L 25 -0.5 Z M 82.64260426351171 0.5 L 93.53911477702341 0.5 L 93.53911477702341 3.5 L 100.53911477702341 0 L 93.53911477702341 -3.5 L 93.53911477702341 -0.5 L 82.64260426351171 -0.5 Z" class="outline" transform="translate(72.10622603490509 -28.295758234903744) rotate(435.7432176975485)"/><text x="59.27" y="3" fill="#000" font-family="sans-serif" font-size="8" pointer-events="none" text-anchor="middle" transform="translate(72.10622603490509 -28.295758234903744) rotate(435.7432176975485)">CONTAINS</text></g><g class="relationship"><path fill="#A5ABB6" stroke="none" d="M 25 0.5 L 36.25797333479071 0.5 L 36.25797333479071 -0.5 L 25 -0.5 Z M 83.0040670847907 0.5 L 94.26204041958142 0.5 L 94.26204041958142 3.5 L 101.26204041958142 0 L 94.26204041958142 -3.5 L 94.26204041958142 -0.5 L 83.0040670847907 -0.5 Z" class="outline" transform="translate(4.286254820540387 14.679720492067936) rotate(398.5564313016895)"/><text x="59.631" y="3" fill="#000" font-family="sans-serif" font-size="8" pointer-events="none" text-anchor="middle" transform="translate(4.286254820540387 14.679720492067936) rotate(398.5564313016895)">CONTAINS</text></g><g class="relationship"><path fill="#A5ABB6" stroke="none" d="M 25 0.5 L 35.96294443215043 0.5 L 35.96294443215043 -0.5 L 25 -0.5 Z M 82.70903818215044 0.5 L 93.67198261430086 0.5 L 93.67198261430086 3.5 L 100.67198261430086 0 L 93.67198261430086 -3.5 L 93.67198261430086 -0.5 L 82.70903818215044 -0.5 Z" class="outline" transform="translate(-22.592178328987544 89.58212008394955) rotate(361.7303947082257)"/><text x="59.336" y="3" fill="#000" font-family="sans-serif" font-size="8" pointer-events="none" text-anchor="middle" transform="translate(-22.592178328987544 89.58212008394955) rotate(361.7303947082257)">CONTAINS</text></g><g class="relationship"><path fill="#A5ABB6" stroke="none" d="M 25 0.5 L 36.119832618512795 0.5 L 36.119832618512795 -0.5 L 25 -0.5 Z M 82.86592636851279 0.5 L 93.98575898702559 0.5 L 93.98575898702559 3.5 L 100.98575898702559 0 L 93.98575898702559 -3.5 L 93.98575898702559 -0.5 L 82.86592636851279 -0.5 Z" class="outline" transform="translate(-2.7247970321257773 161.85997543184394) rotate(327.072503369032)"/><text x="59.493" y="3" fill="#000" font-family="sans-serif" font-size="8" pointer-events="none" text-anchor="middle" transform="translate(-2.7247970321257773 161.85997543184394) rotate(327.072503369032)">CONTAINS</text></g><g class="relationship"><path fill="#A5ABB6" stroke="none" d="M 25 0.5 L 36.14075224091055 0.5 L 36.14075224091055 -0.5 L 25 -0.5 Z M 82.88684599091056 0.5 L 94.0275982318211 0.5 L 94.0275982318211 3.5 L 101.0275982318211 0 L 94.0275982318211 -3.5 L 94.0275982318211 -0.5 L 82.88684599091056 -0.5 Z" class="outline" transform="translate(50.22851881302719 207.81364377088389) rotate(294.7656679783229)"/><text x="59.514" y="3" fill="#000" font-family="sans-serif" font-size="8" pointer-events="none" text-anchor="middle" transform="translate(50.22851881302719 207.81364377088389) rotate(294.7656679783229)">CONTAINS</text></g></g><g class="layer nodes"><g class="node" transform="translate(124.53960127837325,217.28299486249702)"><circle cx="0" cy="0" r="25" fill="#57C7E3" stroke="#23b3d7" stroke-width="2" class="outline"/><text x="0" y="5" fill="#2A2C34" font-family="sans-serif" font-size="10" pointer-events="none" text-anchor="middle">10847</text></g><g class="node" transform="translate(103.02249558593064,93.37697336937556)"><circle cx="0" cy="0" r="25" fill="#F79767" stroke="#f36924" stroke-width="2" class="outline"/><text x="0" y="5" fill="#FFF" font-family="sans-serif" font-size="10" pointer-events="none" text-anchor="middle">Chai</text></g><g class="node" transform="translate(194.83530753306275,180.20460625063455)"><circle cx="0" cy="0" r="25" fill="#57C7E3" stroke="#23b3d7" stroke-width="2" class="outline"/><text x="0" y="5" fill="#2A2C34" font-family="sans-serif" font-size="10" pointer-events="none" text-anchor="middle">10918</text></g><g class="node" transform="translate(227.88830430702905,107.17427364454365)"><circle cx="0" cy="0" r="25" fill="#57C7E3" stroke="#23b3d7" stroke-width="2" class="outline"/><text x="0" y="5" fill="#2A2C34" font-family="sans-serif" font-size="10" pointer-events="none" text-anchor="middle">10576</text></g><g class="node" transform="translate(210.58183752448923,28.44644967794952)"><circle cx="0" cy="0" r="25" fill="#57C7E3" stroke="#23b3d7" stroke-width="2" class="outline"/><text x="0" y="5" fill="#2A2C34" font-family="sans-serif" font-size="10" pointer-events="none" text-anchor="middle">10935</text></g><g class="node" transform="translate(152.56036950450246,-22.04589329243854)"><circle cx="0" cy="0" r="25" fill="#57C7E3" stroke="#23b3d7" stroke-width="2" class="outline"/><text x="0" y="5" fill="#2A2C34" font-family="sans-serif" font-size="10" pointer-events="none" text-anchor="middle">11031</text></g><g class="node" transform="translate(72.10622603490509,-28.295758234903744)"><circle cx="0" cy="0" r="25" fill="#57C7E3" stroke="#23b3d7" stroke-width="2" class="outline"/><text x="0" y="5" fill="#2A2C34" font-family="sans-serif" font-size="10" pointer-events="none" text-anchor="middle">10689</text></g><g class="node" transform="translate(4.286254820540387,14.679720492067936)"><circle cx="0" cy="0" r="25" fill="#57C7E3" stroke="#23b3d7" stroke-width="2" class="outline"/><text x="0" y="5" fill="#2A2C34" font-family="sans-serif" font-size="10" pointer-events="none" text-anchor="middle">10370</text></g><g class="node" transform="translate(-22.592178328987544,89.58212008394955)"><circle cx="0" cy="0" r="25" fill="#57C7E3" stroke="#23b3d7" stroke-width="2" class="outline"/><text x="0" y="5" fill="#2A2C34" font-family="sans-serif" font-size="10" pointer-events="none" text-anchor="middle">10863</text></g><g class="node" transform="translate(-2.7247970321257773,161.85997543184394)"><circle cx="0" cy="0" r="25" fill="#57C7E3" stroke="#23b3d7" stroke-width="2" class="outline"/><text x="0" y="5" fill="#2A2C34" font-family="sans-serif" font-size="10" pointer-events="none" text-anchor="middle">10838</text></g><g class="node" transform="translate(50.22851881302719,207.81364377088389)"><circle cx="0" cy="0" r="25" fill="#57C7E3" stroke="#23b3d7" stroke-width="2" class="outline"/><text x="0" y="5" fill="#2A2C34" font-family="sans-serif" font-size="10" pointer-events="none" text-anchor="middle">10590</text></g></g></svg>