<svg xmlns="http://www.w3.org/2000/svg" xmlns:xlink="http://www.w3.org/1999/xlink" width="715" height="204" viewbox="0 0 715 204"><path fill="none" stroke="#A5ABB6" stroke-width="1" d="M 27 0 L 124.4419750333396 0" transform="translate(255.71513417474517 -101.0394592522482) scale(1) translate(-82.25469918939925 263.3182933946855) rotate(-19.731160237263087)"/><polygon fill="undefined" stroke="none" stroke-width="1" points="-9.45 0 -10.5 3.5 0 0 -10.5 -3.5" transform="translate(255.71513417474517 -101.0394592522482) scale(1) translate(-82.25469918939925 263.3182933946855) rotate(-19.731160237263087) translate(133.8919750333396 0) rotate(0)"/><rect width="31.231" height="14" x="0" y="0" fill="#fff" stroke="none" rx="2" ry="2" transform="translate(255.71513417474517 -101.0394592522482) scale(1) translate(-10.97951220038911 237.7543408407219) rotate(-19.731160237263087) translate(0 -7) translate(0 0) translate(-15.61572265625 0)"/><text x="2" y="9.786" fill="#000" font-family="sans-serif" font-size="10" font-weight="normal" text-anchor="left" transform="translate(255.71513417474517 -101.0394592522482) scale(1) translate(-10.97951220038911 237.7543408407219) rotate(-19.731160237263087) translate(0 -7) translate(0 0) translate(-15.61572265625 0)" xml:space="preserve">SOLD</text><path fill="none" stroke="#A5ABB6" stroke-width="1" d="M 27 0 L 124.4419750333396 0" transform="translate(255.71513417474517 -101.0394592522482) scale(1) translate(-82.25469918939925 263.3182933946855) rotate(-126.5880157500913)"/><polygon fill="undefined" stroke="none" stroke-width="1" points="-9.45 0 -10.5 3.5 0 0 -10.5 -3.5" transform="translate(255.71513417474517 -101.0394592522482) scale(1) translate(-82.25469918939925 263.3182933946855) rotate(-126.5880157500913) translate(133.8919750333396 0) rotate(0)"/><rect width="71.437" height="14" x="0" y="0" fill="#fff" stroke="none" rx="2" ry="2" transform="translate(255.71513417474517 -101.0394592522482) scale(1) translate(-127.38871937149031 202.5187196075095) rotate(53.4119842499087) translate(0 -7) translate(0 0) translate(-35.71826171875 0)"/><text x="2" y="9.786" fill="#000" font-family="sans-serif" font-size="10" font-weight="normal" text-anchor="left" transform="translate(255.71513417474517 -101.0394592522482) scale(1) translate(-127.38871937149031 202.5187196075095) rotate(53.4119842499087) translate(0 -7) translate(0 0) translate(-35.71826171875 0)" xml:space="preserve">REPORTS_TO</text><path fill="none" stroke="#A5ABB6" stroke-width="1" d="M 27 0 L 124.4419750333396 0" transform="translate(255.71513417474517 -101.0394592522482) scale(1) translate(69.19083766401099 209) rotate(0)"/><polygon fill="undefined" stroke="none" stroke-width="1" points="-9.45 0 -10.5 3.5 0 0 -10.5 -3.5" transform="translate(255.71513417474517 -101.0394592522482) scale(1) translate(69.19083766401099 209) rotate(0) translate(133.8919750333396 0) rotate(0)"/><rect width="54.933" height="14" x="0" y="0" fill="#fff" stroke="none" rx="2" ry="2" transform="translate(255.71513417474517 -101.0394592522482) scale(1) translate(144.91182518068078 209) rotate(0) translate(0 -7) translate(0 0) translate(-27.46630859375 0)"/><text x="2" y="9.786" fill="#000" font-family="sans-serif" font-size="10" font-weight="normal" text-anchor="left" transform="translate(255.71513417474517 -101.0394592522482) scale(1) translate(144.91182518068078 209) rotate(0) translate(0 -7) translate(0 0) translate(-27.46630859375 0)" xml:space="preserve">CONTAINS</text><path fill="none" stroke="#A5ABB6" stroke-width="1" d="M 27 0 L 124.4419750333396 0" transform="translate(255.71513417474517 -101.0394592522482) scale(1) translate(230.0828126973506 209) rotate(-27.73190098584773)"/><polygon fill="undefined" stroke="none" stroke-width="1" points="-9.45 0 -10.5 3.5 0 0 -10.5 -3.5" transform="translate(255.71513417474517 -101.0394592522482) scale(1) translate(230.0828126973506 209) rotate(-27.73190098584773) translate(133.8919750333396 0) rotate(0)"/><rect width="49.205" height="14" x="0" y="0" fill="#fff" stroke="none" rx="2" ry="2" transform="translate(255.71513417474517 -101.0394592522482) scale(1) translate(297.1060843782321 173.7643787667876) rotate(-27.73190098584773) translate(0 -7) translate(0 0) translate(-24.6025390625 0)"/><text x="2" y="9.786" fill="#000" font-family="sans-serif" font-size="10" font-weight="normal" text-anchor="left" transform="translate(255.71513417474517 -101.0394592522482) scale(1) translate(297.1060843782321 173.7643787667876) rotate(-27.73190098584773) translate(0 -7) translate(0 0) translate(-24.6025390625 0)" xml:space="preserve">PART_OF</text><path fill="none" stroke="#A5ABB6" stroke-width="1" d="M 27 0 L 124.4419750333396 0" transform="translate(255.71513417474517 -101.0394592522482) scale(1) translate(381.5283495507608 263.3182933946855) rotate(-160.26883976273695)"/><polygon fill="undefined" stroke="none" stroke-width="1" points="-9.45 0 -10.5 3.5 0 0 -10.5 -3.5" transform="translate(255.71513417474517 -101.0394592522482) scale(1) translate(381.5283495507608 263.3182933946855) rotate(-160.26883976273695) translate(133.8919750333396 0) rotate(0)"/><rect width="52.911" height="14" x="0" y="0" fill="#fff" stroke="none" rx="2" ry="2" transform="translate(255.71513417474517 -101.0394592522482) scale(1) translate(310.2531625617507 237.7543408407219) rotate(19.73116023726307) translate(0 -7) translate(0 0) translate(-26.45556640625 0)"/><text x="2" y="9.786" fill="#000" font-family="sans-serif" font-size="10" font-weight="normal" text-anchor="left" transform="translate(255.71513417474517 -101.0394592522482) scale(1) translate(310.2531625617507 237.7543408407219) rotate(19.73116023726307) translate(0 -7) translate(0 0) translate(-26.45556640625 0)" xml:space="preserve">SUPPLIES</text><circle cx="-82.255" cy="263.318" r="26" fill="#4C8EDA" stroke="#194d33" strokewidth="2" transform="translate(255.71513417474517 -101.0394592522482) scale(1)"/><rect width="58.468" height="14" x="0" y="0" fill="#0062b1" stroke="none" rx="7" ry="7" transform="translate(255.71513417474517 -101.0394592522482) scale(1) translate(-82.25469918939925 263.3182933946855) translate(1.6532731788489269e-15 27) translate(0 0) translate(-29.23388671875 0)"/><text x="7" y="9.786" fill="#fff" font-family="sans-serif" font-size="10" font-weight="normal" text-anchor="undefined" transform="translate(255.71513417474517 -101.0394592522482) scale(1) translate(-82.25469918939925 263.3182933946855) translate(1.6532731788489269e-15 27) translate(0 0) translate(-29.23388671875 0)" xml:space="preserve">Employee</text><circle cx="69.191" cy="209" r="26" fill="#68bc00" stroke="#194d33" strokewidth="2" transform="translate(255.71513417474517 -101.0394592522482) scale(1)"/><rect width="39.562" height="14" x="0" y="0" fill="#68bc00" stroke="none" rx="7" ry="7" transform="translate(255.71513417474517 -101.0394592522482) scale(1) translate(69.19083766401099 209) translate(1.6532731788489269e-15 -41) translate(0 0) translate(-19.78076171875 0)"/><text x="7" y="9.786" fill="#fff" font-family="sans-serif" font-size="10" font-weight="normal" text-anchor="undefined" transform="translate(255.71513417474517 -101.0394592522482) scale(1) translate(69.19083766401099 209) translate(1.6532731788489269e-15 -41) translate(0 0) translate(-19.78076171875 0)" xml:space="preserve">Order</text><circle cx="-178.155" cy="134.131" r="26" fill="#4C8EDA" stroke="#194d33" strokewidth="2" transform="translate(255.71513417474517 -101.0394592522482) scale(1)"/><rect width="58.468" height="14" x="0" y="0" fill="#0062b1" stroke="none" rx="7" ry="7" transform="translate(255.71513417474517 -101.0394592522482) scale(1) translate(-178.1554776452084 134.13134234428497) translate(-19.09188309203678 -33.09188309203678) translate(0 0) translate(-58.4677734375 0)"/><text x="7" y="9.786" fill="#fff" font-family="sans-serif" font-size="10" font-weight="normal" text-anchor="undefined" transform="translate(255.71513417474517 -101.0394592522482) scale(1) translate(-178.1554776452084 134.13134234428497) translate(-19.09188309203678 -33.09188309203678) translate(0 0) translate(-58.4677734375 0)" xml:space="preserve">Employee</text><circle cx="230.083" cy="209" r="26" fill="#fe9200" stroke="#c45100" strokewidth="2" transform="translate(255.71513417474517 -101.0394592522482) scale(1)"/><rect width="48.463" height="14" x="0" y="0" fill="#fe9200" stroke="none" rx="7" ry="7" transform="translate(255.71513417474517 -101.0394592522482) scale(1) translate(230.0828126973506 209) translate(1.6532731788489269e-15 27) translate(0 0) translate(-24.2314453125 0)"/><text x="7" y="9.786" fill="#fff" font-family="sans-serif" font-size="10" font-weight="normal" text-anchor="undefined" transform="translate(255.71513417474517 -101.0394592522482) scale(1) translate(230.0828126973506 209) translate(1.6532731788489269e-15 27) translate(0 0) translate(-24.2314453125 0)" xml:space="preserve">Product</text><circle cx="372.494" cy="134.131" r="26" fill="#f44e3b" stroke="#9f0500" strokewidth="2" transform="translate(255.71513417474517 -101.0394592522482) scale(1)"/><rect width="54.576" height="14" x="0" y="0" fill="#f44e3b" stroke="none" rx="7" ry="7" transform="translate(255.71513417474517 -101.0394592522482) scale(1) translate(372.49387873844205 134.13134234428497) translate(19.091883092036785 -33.09188309203678) translate(0 0) translate(0 0)"/><text x="7" y="9.786" fill="#fff" font-family="sans-serif" font-size="10" font-weight="normal" text-anchor="undefined" transform="translate(255.71513417474517 -101.0394592522482) scale(1) translate(372.49387873844205 134.13134234428497) translate(19.091883092036785 -33.09188309203678) translate(0 0) translate(0 0)" xml:space="preserve">Category</text><circle cx="381.528" cy="263.318" r="26" fill="#aea1ff" stroke="#653294" strokewidth="2" transform="translate(255.71513417474517 -101.0394592522482) scale(1)"/><rect width="50.689" height="14" x="0" y="0" fill="#aea1ff" stroke="none" rx="7" ry="7" transform="translate(255.71513417474517 -101.0394592522482) scale(1) translate(381.5283495507608 263.3182933946855) translate(27 -7) translate(0 0) translate(0 0)"/><text x="7" y="9.786" fill="#fff" font-family="sans-serif" font-size="10" font-weight="normal" text-anchor="undefined" transform="translate(255.71513417474517 -101.0394592522482) scale(1) translate(381.5283495507608 263.3182933946855) translate(27 -7) translate(0 0) translate(0 0)" xml:space="preserve">Supplier</text></svg>