<svg xmlns="http://www.w3.org/2000/svg" width="340.043" height="289.173" viewBox="-89.218 -41.613 340.043 289.173"><title>Neo4j Graph Visualization</title><desc>Created using Neo4j (http://www.neo4j.com/)</desc><g class="layer relationships"><g class="relationship"><path fill="#A5ABB6" stroke="none" d="M 25 0.5 L 26.238153952859946 0.5 L 26.238153952859946 -0.5 L 25 -0.5 Z M 78.76940395285995 0.5 L 80.00755790571989 0.5 L 80.00755790571989 3.5 L 87.00755790571989 0 L 80.00755790571989 -3.5 L 80.00755790571989 -0.5 L 78.76940395285995 -0.5 Z" class="outline" transform="translate(147.01746396601055 218.5602095607125) rotate(250.4144053252669)"/><text x="52.504" y="3" fill="#000" font-family="sans-serif" font-size="8" pointer-events="none" text-anchor="middle" transform="translate(147.01746396601055 218.5602095607125) rotate(250.4144053252669) rotate(180 52.503778952859946 0)">REPORTS…</text></g><g class="relationship"><path fill="#A5ABB6" stroke="none" d="M 25 0.5 L 26.479986874067166 0.5 L 26.479986874067166 -0.5 L 25 -0.5 Z M 79.01123687406717 0.5 L 80.49122374813433 0.5 L 80.49122374813433 3.5 L 87.49122374813433 0 L 80.49122374813433 -3.5 L 80.49122374813433 -0.5 L 79.01123687406717 -0.5 Z" class="outline" transform="translate(221.82520040873916 118.58144058718239) rotate(182.8270572703915)"/><text x="52.746" y="3" fill="#000" font-family="sans-serif" font-size="8" pointer-events="none" text-anchor="middle" transform="translate(221.82520040873916 118.58144058718239) rotate(182.8270572703915) rotate(180 52.745611874067166 0)">REPORTS…</text></g><g class="relationship"><path fill="#A5ABB6" stroke="none" d="M 25 0.5 L 26.433654925706506 0.5 L 26.433654925706506 -0.5 L 25 -0.5 Z M 78.9649049257065 0.5 L 80.39855985141301 0.5 L 80.39855985141301 3.5 L 87.39855985141301 0 L 80.39855985141301 -3.5 L 80.39855985141301 -0.5 L 78.9649049257065 -0.5 Z" class="outline" transform="translate(163.2658686599949 14.344124998379685) rotate(478.5946063355925)"/><text x="52.699" y="3" fill="#000" font-family="sans-serif" font-size="8" pointer-events="none" text-anchor="middle" transform="translate(163.2658686599949 14.344124998379685) rotate(478.5946063355925) rotate(180 52.699279925706506 0)">REPORTS…</text></g><g class="relationship"><path fill="#A5ABB6" stroke="none" d="M 25 0.5 L 27.469878704073757 0.5 L 27.469878704073757 -0.5 L 25 -0.5 Z M 74.66519120407375 0.5 L 77.13506990814751 0.5 L 77.13506990814751 3.5 L 84.13506990814751 0 L 77.13506990814751 -3.5 L 77.13506990814751 -0.5 L 74.66519120407375 -0.5 Z" class="outline" transform="translate(32.50017029420807 35.66414264328235) rotate(405.1478819124356)"/><text x="51.068" y="3" fill="#000" font-family="sans-serif" font-size="8" pointer-events="none" text-anchor="middle" transform="translate(32.50017029420807 35.66414264328235) rotate(405.1478819124356)">REPORT…</text></g><g class="relationship"><path fill="#A5ABB6" stroke="none" d="M 25 0.5 L 26.08878140413885 0.5 L 26.08878140413885 -0.5 L 25 -0.5 Z M 78.62003140413884 0.5 L 79.7088128082777 0.5 L 79.7088128082777 3.5 L 86.7088128082777 0 L 79.7088128082777 -3.5 L 79.7088128082777 -0.5 L 78.62003140413884 -0.5 Z" class="outline" transform="translate(27.08888047571622 188.4789832821904) rotate(317.5164214779482)"/><text x="52.354" y="3" fill="#000" font-family="sans-serif" font-size="8" pointer-events="none" text-anchor="middle" transform="translate(27.08888047571622 188.4789832821904) rotate(317.5164214779482)">REPORTS…</text></g><g class="relationship"><path fill="#A5ABB6" stroke="none" d="M 25 0.5 L 25.169266398305908 0.5 L 25.169266398305908 -0.5 L 25 -0.5 Z M 72.36457889830591 0.5 L 72.53384529661182 0.5 L 72.53384529661182 3.5 L 79.53384529661182 0 L 72.53384529661182 -3.5 L 72.53384529661182 -0.5 L 72.36457889830591 -0.5 Z" class="outline" transform="translate(-60.217997823558484 -12.61283026701464) rotate(387.50532344671717)"/><text x="48.767" y="3" fill="#000" font-family="sans-serif" font-size="8" pointer-events="none" text-anchor="middle" transform="translate(-60.217997823558484 -12.61283026701464) rotate(387.50532344671717)">REPORT…</text></g></g><g class="layer nodes"><g class="node" transform="translate(147.01746396601055,218.5602095607125)"><circle cx="0" cy="0" r="25" fill="#8DCC93" stroke="#5db665" stroke-width="2" class="outline"/><text x="0" y="0" fill="#2A2C34" font-family="sans-serif" font-size="10" pointer-events="none" text-anchor="middle">Sales</text><text x="0" y="10" fill="#2A2C34" font-family="sans-serif" font-size="10" pointer-events="none" text-anchor="middle">Repres…</text></g><g class="node" transform="translate(109.47088329104082,113.03321155725756)"><circle cx="0" cy="0" r="25" fill="#8DCC93" stroke="#5db665" stroke-width="2" class="outline"/><text x="0" y="-5" fill="#2A2C34" font-family="sans-serif" font-size="10" pointer-events="none" text-anchor="middle">Vice</text><text x="0" y="5" fill="#2A2C34" font-family="sans-serif" font-size="10" pointer-events="none" text-anchor="middle">President,</text><text x="0" y="15" fill="#2A2C34" font-family="sans-serif" font-size="10" pointer-events="none" text-anchor="middle">Sales</text></g><g class="node" transform="translate(221.82520040873916,118.58144058718239)"><circle cx="0" cy="0" r="25" fill="#8DCC93" stroke="#5db665" stroke-width="2" class="outline"/><text x="0" y="0" fill="#2A2C34" font-family="sans-serif" font-size="10" pointer-events="none" text-anchor="middle">Sales</text><text x="0" y="10" fill="#2A2C34" font-family="sans-serif" font-size="10" pointer-events="none" text-anchor="middle">Repres…</text></g><g class="node" transform="translate(163.2658686599949,14.344124998379685)"><circle cx="0" cy="0" r="25" fill="#8DCC93" stroke="#5db665" stroke-width="2" class="outline"/><text x="0" y="0" fill="#2A2C34" font-family="sans-serif" font-size="10" pointer-events="none" text-anchor="middle">Sales</text><text x="0" y="10" fill="#2A2C34" font-family="sans-serif" font-size="10" pointer-events="none" text-anchor="middle">Repres…</text></g><g class="node" transform="translate(32.50017029420807,35.66414264328235)"><circle cx="0" cy="0" r="25" fill="#8DCC93" stroke="#5db665" stroke-width="2" class="outline"/><text x="0" y="0" fill="#2A2C34" font-family="sans-serif" font-size="10" pointer-events="none" text-anchor="middle">Sales</text><text x="0" y="10" fill="#2A2C34" font-family="sans-serif" font-size="10" pointer-events="none" text-anchor="middle">Manager</text></g><g class="node" transform="translate(27.08888047571622,188.4789832821904)"><circle cx="0" cy="0" r="25" fill="#8DCC93" stroke="#5db665" stroke-width="2" class="outline"/><text x="0" y="-5" fill="#2A2C34" font-family="sans-serif" font-size="10" pointer-events="none" text-anchor="middle">Inside</text><text x="0" y="5" fill="#2A2C34" font-family="sans-serif" font-size="10" pointer-events="none" text-anchor="middle">Sales</text><text x="0" y="15" fill="#2A2C34" font-family="sans-serif" font-size="10" pointer-events="none" text-anchor="middle">Coordi…</text></g><g class="node" transform="translate(-60.217997823558484,-12.61283026701464)"><circle cx="0" cy="0" r="25" fill="#8DCC93" stroke="#5db665" stroke-width="2" class="outline"/><text x="0" y="0" fill="#2A2C34" font-family="sans-serif" font-size="10" pointer-events="none" text-anchor="middle">Sales</text><text x="0" y="10" fill="#2A2C34" font-family="sans-serif" font-size="10" pointer-events="none" text-anchor="middle">Repres…</text></g></g></svg>